<svg width="2108" height="2109" xmlns="http://www.w3.org/2000/svg" xmlns:xlink="http://www.w3.org/1999/xlink" xml:space="preserve" overflow="hidden"><defs><filter id="fx0" x="-10%" y="-10%" width="120%" height="120%" filterUnits="userSpaceOnUse" primitiveUnits="userSpaceOnUse"><feComponentTransfer color-interpolation-filters="sRGB"><feFuncR type="discrete" tableValues="0 0"/><feFuncG type="discrete" tableValues="0 0"/><feFuncB type="discrete" tableValues="0 0"/><feFuncA type="linear" slope="0.4" intercept="0"/></feComponentTransfer><feGaussianBlur stdDeviation="4.8747 4.8747"/></filter><filter id="fx1" x="-10%" y="-10%" width="120%" height="120%" filterUnits="userSpaceOnUse" primitiveUnits="userSpaceOnUse"><feComponentTransfer color-interpolation-filters="sRGB"><feFuncR type="discrete" tableValues="0 0"/><feFuncG type="discrete" tableValues="0 0"/><feFuncB type="discrete" tableValues="0 0"/><feFuncA type="linear" slope="0.4" intercept="0"/></feComponentTransfer><feGaussianBlur stdDeviation="4.8747 4.8747"/></filter><filter id="fx2" x="-10%" y="-10%" width="120%" height="120%" filterUnits="userSpaceOnUse" primitiveUnits="userSpaceOnUse"><feComponentTransfer color-interpolation-filters="sRGB"><feFuncR type="discrete" tableValues="0 0"/><feFuncG type="discrete" tableValues="0 0"/><feFuncB type="discrete" tableValues="0 0"/><feFuncA type="linear" slope="0.4" intercept="0"/></feComponentTransfer><feGaussianBlur stdDeviation="4.8747 4.8747"/></filter><clipPath id="clip3"><rect x="1049" y="48" width="2108" height="2109"/></clipPath><clipPath id="clip4"><rect x="147" y="138" width="457" height="210"/></clipPath><clipPath id="clip5"><rect x="150" y="141" width="198" height="207"/></clipPath><clipPath id="clip6"><rect x="95" y="68" width="927" height="189"/></clipPath></defs><g clip-path="url(#clip3)" transform="translate(-1049 -48)"><path d="M2876.47 1074.73C2876.16 1027.22 2871.57 979.705 2862.61 932.986 2854.59 891.028 2843.04 849.723 2828.16 809.635 2844.16 812.338 2857.72 818.06 2871.76 827.084 2874.21 828.655 2875.8 831.275 2875.91 834.179 2880.2 954.1 3095.36 1093.38 3157 1101.76 3148.11 1039.8 3009.67 821.854 2886.39 824.828 2883.22 824.905 2880.08 823.948 2877.53 822.05 2861.76 810.3 2843.23 802.259 2823.92 798.468 2822.45 794.677 2820.95 790.893 2819.42 787.125 2814.27 774.475 2808.77 761.967 2802.96 749.608 2876.91 732.468 2972.17 726.534 3015.18 655.333L3010.47 653.231C2976.63 704.757 2914.39 718.438 2854.64 728.618 2869.1 719.811 2881.89 708.267 2892.02 694.634L2888.01 691.387C2872.7 710.766 2851.65 725.384 2828.27 733.036 2821.08 734.256 2814 735.501 2807.09 736.832 2801.52 737.905 2795.98 735.104 2793.42 730.047 2756.98 657.964 2709.22 591.531 2652.35 533.96 2614.64 495.754 2572.57 462.287 2527.62 432.927 2553.19 424.881 2581.29 425.35 2606.66 434.245L2608.36 429.376C2579.51 417.517 2546.59 416.385 2516.97 426.064 2500.55 415.679 2483.77 405.824 2466.7 396.473 2551.37 363.639 2859.87 386.791 2937.52 380.228 2891.76 344.539 2640.51 290.084 2554.93 373.79 2552.31 376.357 2548.82 377.829 2545.15 377.935 2519.61 378.667 2494.41 380.555 2468.21 385.982 2459.88 387.709 2446.81 385.829 2439.22 381.971 2426.51 375.508 2413.66 369.308 2400.71 363.361 2356.66 343.147 2281.8 324.632 2258.47 319.11 2256.62 318.672 2256.63 316.047 2258.48 315.603 2275.22 311.58 2317.24 303.319 2338.54 314.422 2338.54 314.422 2340.58 314.504 2341.19 312.526 2341.79 310.548 2340.08 309.468 2340.08 309.468 2329.21 305.413 2317.8 302.914 2306.24 301.934 2338.58 291.719 2368.5 276.428 2392 248.884 2394.36 246.48 2390.47 242.911 2388.26 245.328 2376.12 258.003 2362.15 268.766 2346.96 277.256 2311.73 296.851 2267.66 302.347 2226.41 309.078 2218.73 310.331 2210.91 310.432 2203.2 309.385 2199.07 308.825 2194.94 308.302 2190.8 307.809 2199.8 303.314 2209.21 298.053 2219.04 291.835 2307.41 235.968 2354.64 152.047 2354.64 152.047 2354.64 152.047 2258.59 158.704 2170.23 214.57 2084.49 268.773 2075.57 325.3 2075.11 328.622 2027.62 328.931 1980.12 333.527 1933.42 342.481 1891.47 350.51 1850.18 362.061 1810.11 376.947 1812.81 360.937 1818.53 347.374 1827.55 333.329 1829.12 330.886 1831.74 329.284 1834.64 329.182 1954.52 324.893 2093.76 109.662 2102.14 48.0001 2040.2 56.8977 1822.32 195.378 1825.29 318.695 1825.37 321.872 1824.42 325.009 1822.52 327.557 1810.77 343.338 1802.73 361.873 1798.94 381.187 1795.15 382.662 1791.37 384.156 1787.6 385.693 1774.96 390.84 1762.45 396.339 1750.1 402.154 1732.96 328.183 1727.03 232.889 1655.85 189.869L1653.75 194.578C1705.26 228.43 1718.94 290.685 1729.11 350.458 1720.31 335.998 1708.77 323.196 1695.14 313.068L1691.89 317.076C1711.27 332.395 1725.88 353.447 1733.53 376.839 1734.75 384.029 1735.99 391.108 1737.32 398.025 1738.4 403.591 1735.6 409.141 1730.54 411.699 1658.48 448.148 1592.07 495.922 1534.52 552.809 1496.33 590.533 1462.87 632.622 1433.52 677.579 1425.48 652.006 1425.95 623.897 1434.84 598.515L1429.97 596.81C1418.12 625.674 1416.98 658.6 1426.66 688.238 1416.28 704.661 1406.42 721.443 1397.08 738.516 1364.25 653.822 1387.4 345.22 1380.84 267.548 1345.16 313.326 1290.72 564.653 1374.4 650.26 1376.97 652.886 1378.44 656.375 1378.54 660.042 1379.27 685.587 1381.16 710.797 1386.59 737.002 1388.32 745.343 1386.44 758.413 1382.58 766.003 1376.12 778.718 1369.92 791.566 1363.98 804.526 1343.76 848.596 1325.25 923.511 1319.74 946.825 1319.3 948.674 1316.68 948.664 1316.24 946.815 1312.22 930.082 1303.92 888.073 1315.02 866.76 1315.02 866.76 1315.36 864.751 1313.29 864.072 1311.23 863.394 1310.1 865.171 1310.1 865.171 1306.05 876.042 1303.55 887.464 1302.57 899.028 1292.36 866.67 1277.07 836.743 1249.54 813.24 1247.13 810.872 1243.56 814.762 1245.98 816.977 1258.65 829.116 1269.41 843.1 1277.9 858.293 1297.48 893.532 1302.98 937.61 1309.71 978.866 1310.97 986.565 1311.06 994.397 1310.01 1002.13 1309.49 1006.01 1308.99 1009.9 1308.53 1013.79 1304.08 1004.92 1298.88 995.633 1292.75 985.938 1236.91 897.545 1153.01 850.303 1153.01 850.303 1153.01 850.303 1159.67 946.376 1215.51 1034.77 1269.7 1120.53 1326.21 1129.46 1329.53 1129.91 1329.84 1177.42 1334.43 1224.94 1343.38 1271.66 1351.41 1313.61 1362.96 1354.92 1377.84 1395.01 1361.84 1392.3 1348.28 1386.58 1334.24 1377.56 1331.79 1375.99 1330.19 1373.37 1330.09 1370.46 1325.8 1250.56 1110.64 1111.28 1049 1102.9 1057.89 1164.86 1196.33 1382.81 1319.61 1379.83 1322.78 1379.75 1325.92 1380.71 1328.47 1382.61 1344.24 1394.36 1362.77 1402.4 1382.08 1406.19 1383.55 1409.98 1385.05 1413.77 1386.58 1417.53 1391.73 1430.18 1397.23 1442.69 1403.04 1455.05 1329.09 1472.19 1233.83 1478.13 1190.82 1549.33L1195.53 1551.43C1229.37 1499.9 1291.61 1486.22 1351.36 1476.04 1336.91 1484.85 1324.11 1496.39 1313.98 1510.03 1313.98 1510.03 1313.34 1512.06 1314.75 1513.13 1316.16 1514.2 1317.99 1513.27 1317.99 1513.27 1333.3 1493.89 1354.35 1479.28 1377.73 1471.62 1384.92 1470.4 1392 1469.16 1398.91 1467.83 1404.48 1466.76 1410.02 1469.56 1412.58 1474.61 1449.02 1546.7 1496.78 1613.13 1553.65 1670.7 1591.36 1708.91 1633.43 1742.37 1678.38 1771.73 1652.81 1779.78 1624.71 1779.31 1599.34 1770.41L1597.63 1775.28C1626.49 1787.14 1659.4 1788.27 1689.03 1778.6 1705.45 1788.98 1722.23 1798.84 1739.29 1808.19 1654.63 1841.02 1346.12 1817.87 1268.48 1824.43 1314.24 1860.12 1565.48 1914.58 1651.06 1830.87 1653.69 1828.3 1657.18 1826.83 1660.85 1826.73 1686.38 1826 1711.58 1824.11 1737.78 1818.68 1746.12 1816.95 1759.19 1818.83 1766.78 1822.69 1779.49 1829.15 1792.33 1835.35 1805.29 1841.3 1849.35 1861.52 1924.25 1880.04 1947.55 1885.55 1949.4 1885.99 1949.38 1888.61 1947.54 1889.05 1930.82 1893.07 1888.77 1901.35 1867.47 1890.25 1867.47 1890.25 1865.2 1890.12 1864.68 1892.02 1864.17 1893.91 1865.91 1895.19 1865.91 1895.19 1876.78 1899.25 1888.2 1901.75 1899.76 1902.73 1867.41 1912.94 1837.49 1928.23 1814 1955.78 1811.63 1958.18 1815.52 1961.75 1817.74 1959.33 1829.87 1946.66 1843.85 1935.89 1859.04 1927.4 1894.27 1907.81 1938.33 1902.31 1979.58 1895.58 1987.3 1894.32 1995.15 1894.24 2002.89 1895.29 2006.6 1895.79 2010.32 1896.26 2014.04 1896.71 2004.75 1901.3 1995.02 1906.72 1984.83 1913.17 1896.46 1969.03 1849.24 2052.95 1849.24 2052.95 1849.24 2052.95 1945.28 2046.3 2033.64 1990.43 2119.38 1936.23 2128.3 1879.7 2128.76 1876.38 2176.25 1876.07 2223.75 1871.47 2270.45 1862.52 2312.4 1854.49 2353.69 1842.94 2393.76 1828.05 2391.06 1844.06 2385.34 1857.63 2376.32 1871.67 2374.75 1874.11 2372.13 1875.72 2369.23 1875.82 2249.35 1880.11 2110.11 2095.34 2101.73 2157 2163.68 2148.1 2381.55 2009.62 2378.58 1886.31 2378.5 1883.13 2379.46 1879.99 2381.35 1877.44 2393.1 1861.66 2401.14 1843.13 2404.93 1823.81 2408.72 1822.34 2412.5 1820.84 2416.27 1819.31 2428.91 1814.16 2441.42 1808.66 2453.77 1802.85 2470.91 1876.82 2476.84 1972.11 2548.02 2015.13L2550.12 2010.42C2498.61 1976.57 2484.93 1914.32 2474.76 1854.54 2483.56 1869 2495.1 1881.8 2508.73 1891.93L2511.97 1887.92C2492.6 1872.61 2477.99 1851.55 2470.34 1828.16 2469.12 1820.97 2467.87 1813.89 2466.54 1806.97 2465.47 1801.41 2468.27 1795.86 2473.33 1793.3 2545.39 1756.85 2611.8 1709.08 2669.35 1652.19 2707.54 1614.47 2741 1572.38 2770.35 1527.42 2778.39 1552.99 2777.93 1581.1 2769.03 1606.48L2773.9 1608.19C2785.76 1579.32 2786.89 1546.4 2777.21 1516.76 2787.59 1500.34 2797.45 1483.55 2806.79 1466.48 2839.62 1551.18 2816.47 1859.78 2823.03 1937.45 2858.71 1891.67 2913.15 1640.35 2829.47 1554.74 2826.9 1552.11 2825.43 1548.62 2825.33 1544.95 2824.6 1519.41 2822.71 1494.2 2817.28 1467.99 2815.55 1459.65 2817.43 1446.58 2821.29 1438.99 2827.75 1426.28 2833.95 1413.43 2839.89 1400.47 2860.1 1356.41 2878.61 1281.52 2884.13 1258.19 2884.57 1256.33 2887.19 1256.35 2887.64 1258.2 2891.66 1274.94 2899.91 1316.98 2888.81 1338.28 2888.81 1338.28 2888.72 1340.39 2890.66 1340.97 2892.6 1341.55 2893.77 1339.82 2893.77 1339.82 2897.82 1328.95 2900.32 1317.53 2901.3 1305.97 2911.51 1338.33 2926.8 1368.25 2954.33 1391.76 2956.74 1394.12 2960.3 1390.23 2957.89 1388.02 2945.22 1375.88 2934.46 1361.9 2925.97 1346.7 2906.38 1311.46 2900.89 1267.39 2894.16 1226.13 2892.91 1218.51 2892.78 1210.75 2893.82 1203.1 2894.53 1197.9 2895.17 1192.68 2895.77 1187.46 2900.57 1197.35 2906.33 1207.78 2913.24 1218.72 2969.09 1307.11 3052.98 1354.35 3052.98 1354.35 3052.98 1354.35 3046.33 1258.28 2990.48 1169.88 2936.3 1084.11 2879.79 1075.18 2876.47 1074.73ZM2862.82 1249.83 2862.79 1249.95C2861.35 1257.83 2856.68 1264.79 2849.85 1268.96 2844.03 1272.52 2837.97 1275.72 2831.82 1278.61 2808.11 1289.59 2781.87 1294.94 2755.78 1295.04 2752.35 1294.9 2752.32 1300.24 2755.7 1300.2 2786.22 1300.92 2817.4 1294.5 2844.78 1280.71 2850.06 1278.06 2856.04 1282.69 2854.68 1288.43 2846.22 1323.96 2835.19 1358.9 2821.65 1392.89 2795.59 1458.42 2760.14 1520.32 2716.89 1576.38 2693.71 1587.74 2667.14 1591.34 2641.28 1593.64 2632.46 1594.43 2623.68 1591.67 2616.97 1585.89 2526.07 1507.52 2284.87 1551.45 2232.87 1587.91 2232.87 1587.91 2331.67 1644.99 2455.49 1648.62 2540.93 1651.13 2591 1625.91 2613.84 1610.02 2622.97 1603.67 2633.75 1600.16 2644.85 1599.54 2665.48 1598.39 2686.45 1596.32 2706.01 1590.16 2691.36 1608.27 2675.92 1625.75 2659.65 1642.47 2589.88 1714.25 2505.76 1772.41 2413.33 1812.19 2404.4 1816.04 2395.38 1819.66 2386.31 1823.16 2382.73 1823.89 2378.31 1824.45 2374.54 1824.82 2370.67 1825.2 2366.77 1825.43 2362.87 1825.5 2355.06 1825.62 2347.23 1825.18 2339.51 1823.95 2331.79 1822.75 2324.17 1820.83 2316.88 1818.01 2309.56 1815.26 2302.63 1811.51 2296.21 1807L2296.19 1806.99C2295.63 1806.59 2294.85 1806.71 2294.43 1807.26 2293.99 1807.83 2294.1 1808.64 2294.67 1809.07 2301.08 1813.97 2308.09 1818.14 2315.54 1821.29 2322.98 1824.5 2330.79 1826.81 2338.73 1828.37 2346.67 1829.97 2354.75 1830.75 2362.85 1830.95 2363.65 1830.96 2364.45 1830.95 2365.25 1830.95 2334 1841.98 2302.02 1851.02 2269.55 1857.92 2221.13 1868.2 2171.65 1873.76 2122.03 1874.65 2113.23 1873.1 2096.04 1871.6 2072.03 1876.35 2033.11 1875.26 1994.24 1871.27 1955.87 1864.22L1955.75 1864.2C1947.88 1862.75 1940.92 1858.08 1936.75 1851.25 1933.19 1845.43 1929.99 1839.37 1927.1 1833.22 1916.13 1809.49 1910.77 1783.25 1910.68 1757.15 1910.82 1753.71 1905.48 1753.69 1905.52 1757.07 1904.8 1787.6 1911.22 1818.79 1925 1846.18 1927.66 1851.46 1923.03 1857.45 1917.28 1856.08 1881.77 1847.62 1846.84 1836.58 1812.86 1823.04 1747.35 1796.97 1685.47 1761.51 1629.43 1718.24 1618.07 1695.06 1614.47 1668.49 1612.17 1642.61 1611.39 1633.79 1614.14 1625.01 1619.92 1618.29 1698.27 1527.36 1654.35 1286.09 1617.9 1234.07 1617.9 1234.07 1560.84 1332.9 1557.21 1456.76 1554.7 1542.23 1579.92 1592.32 1595.8 1615.16 1602.14 1624.29 1605.65 1635.08 1606.27 1646.18 1607.43 1666.82 1609.5 1687.8 1615.66 1707.36 1597.55 1692.71 1580.07 1677.26 1563.36 1660.99 1491.61 1591.2 1433.47 1507.05 1393.7 1414.59 1389.8 1405.54 1386.14 1396.4 1382.59 1387.21 1381.86 1383.63 1381.45 1379.58 1381.07 1375.79 1380.69 1371.91 1380.46 1368.01 1380.39 1364.11 1380.27 1356.3 1380.71 1348.46 1381.94 1340.74 1383.14 1333.03 1385.06 1325.4 1387.87 1318.11 1390.62 1310.78 1394.38 1303.85 1398.88 1297.43L1398.89 1297.41C1399.29 1296.85 1399.17 1296.07 1398.62 1295.65 1398.06 1295.22 1397.25 1295.32 1396.81 1295.89 1391.92 1302.3 1387.75 1309.31 1384.6 1316.77 1381.39 1324.21 1379.08 1332.02 1377.52 1339.96 1375.93 1347.9 1375.14 1355.99 1374.94 1364.09 1374.93 1364.89 1374.94 1365.7 1374.94 1366.5 1363.91 1335.24 1354.87 1303.25 1347.99 1270.76 1337.71 1222.33 1332.15 1172.84 1331.26 1123.2 1332.87 1114.03 1334.44 1095.81 1328.96 1070.26 1330.09 1031.69 1334.08 993.182 1341.06 955.168L1341.08 955.047C1342.53 947.171 1347.2 940.213 1354.03 936.034 1359.85 932.473 1365.9 929.28 1372.06 926.386 1395.77 915.407 1422.01 910.054 1448.1 909.955 1451.54 910.1 1451.56 904.756 1448.18 904.798 1417.66 904.081 1386.48 910.5 1359.1 924.287 1353.83 926.941 1347.84 922.309 1349.2 916.566 1357.66 881.042 1368.69 846.099 1382.23 812.111 1408.29 746.576 1443.74 684.677 1486.99 628.622 1510.17 617.254 1536.74 613.659 1562.6 611.356 1571.42 610.569 1580.2 613.326 1586.91 619.108 1677.82 697.481 1919.01 653.548 1971.01 617.089 1971.01 617.089 1872.21 560.008 1748.39 556.374 1662.95 553.864 1612.88 579.09 1590.04 594.974 1580.91 601.323 1570.13 604.833 1559.03 605.455 1538.41 606.61 1517.43 608.678 1497.87 614.84 1512.52 596.73 1527.97 579.247 1544.23 562.53 1614 490.754 1698.12 432.592 1790.55 392.813 1799.61 388.909 1808.76 385.236 1817.97 381.685 1821.5 380.976 1825.62 380.55 1829.33 380.184 1833.21 379.802 1837.11 379.572 1841.01 379.503 1848.82 379.384 1856.65 379.82 1864.37 381.05 1872.09 382.252 1879.71 384.174 1887 386.987 1894.32 389.737 1901.25 393.491 1907.67 397.997L1907.69 398.012C1908.25 398.407 1909.03 398.289 1909.45 397.739 1909.88 397.174 1909.78 396.364 1909.21 395.931 1902.8 391.031 1895.79 386.864 1888.33 383.714 1880.9 380.498 1873.09 378.193 1865.15 376.627 1857.21 375.036 1849.12 374.255 1841.03 374.054 1840.23 374.036 1839.43 374.054 1838.63 374.049 1869.88 363.021 1901.85 353.976 1934.33 347.088 1982.75 336.805 2032.22 331.242 2081.85 330.357 2090.86 331.941 2108.65 333.475 2133.55 328.31 2172.61 329.378 2211.63 333.375 2250.13 340.447L2250.25 340.47C2258.13 341.917 2265.08 346.587 2269.26 353.422 2272.81 359.245 2276.01 365.298 2278.9 371.454 2289.88 395.176 2295.23 421.425 2295.33 447.519 2295.18 450.957 2300.52 450.977 2300.48 447.602 2301.2 417.069 2294.78 385.881 2281 358.489 2278.35 353.215 2282.98 347.224 2288.72 348.591 2324.23 357.048 2359.16 368.086 2393.14 381.631 2458.65 407.702 2520.53 443.163 2576.57 486.426 2587.93 509.609 2591.53 536.185 2593.83 562.058 2594.62 570.883 2591.86 579.667 2586.08 586.378 2507.73 677.311 2551.65 918.585 2588.1 970.598 2588.1 970.598 2645.16 871.773 2648.8 747.909 2651.3 662.443 2626.09 612.356 2610.21 589.511 2603.86 580.379 2600.35 569.594 2599.73 558.489 2598.57 537.857 2596.51 516.871 2590.35 497.312 2608.45 511.963 2625.93 527.414 2642.64 543.683 2714.4 613.473 2772.54 697.626 2812.31 790.086 2816.16 799.027 2819.79 808.067 2823.29 817.155 2824.01 820.719 2824.57 825.158 2824.93 828.882 2825.32 832.758 2825.54 836.66 2825.61 840.565 2825.73 848.372 2825.3 856.209 2824.07 863.928 2822.87 871.647 2820.95 879.271 2818.13 886.567 2815.38 893.891 2811.63 900.821 2807.13 907.24L2807.11 907.26C2806.72 907.823 2806.83 908.602 2807.38 909.024 2807.95 909.458 2808.76 909.35 2809.19 908.782 2814.09 902.371 2818.26 895.358 2821.4 887.9 2824.62 880.467 2826.92 872.653 2828.49 864.712 2830.08 856.769 2830.86 848.678 2831.06 840.58 2831.08 839.778 2831.06 838.976 2831.07 838.176 2842.09 869.437 2851.13 901.424 2858.02 933.909 2868.3 982.343 2873.86 1031.84 2874.75 1081.47 2873.36 1089.36 2872.02 1103.97 2875.16 1124.18 2874.5 1166.27 2870.43 1208.34 2862.82 1249.83Z" fill="#D1D1D1" fill-rule="evenodd"/><path d="M1617 1394.64C1617 1499.96 1612.74 1593.87 1612.69 1595L1610 1594.89C1610.06 1593.51 1616.3 1456.01 1613.66 1327.05L1616.35 1327C1616.81 1349.54 1617 1372.35 1617 1394.64Z" fill="#E6E6E6" fill-rule="evenodd"/><path d="M1309 1357.92 1307.47 1360C1216.05 1292.36 1113.03 1176.88 1112 1175.72L1113.93 1174C1114.95 1175.16 1217.8 1290.44 1309 1357.92Z" fill="#E6E6E6" fill-rule="evenodd"/><path d="M1309 1087.21 1307.15 1089C1306.63 1088.47 1254.46 1034.47 1203 934.165L1205.3 933C1256.56 1032.93 1308.48 1086.68 1309 1087.21Z" fill="#E6E6E6" fill-rule="evenodd"/><path d="M1810.36 616C1705.04 616 1611.13 611.741 1610 611.687L1610.11 609C1611.49 609.062 1748.99 615.301 1877.95 612.658L1878 615.346C1855.46 615.809 1832.65 616 1810.36 616Z" fill="#E6E6E6" fill-rule="evenodd"/><path d="M1847.08 308 1845 306.468C1912.64 215.048 2028.12 112.029 2029.28 111L2031 112.927C2029.84 113.954 1914.56 216.797 1847.08 308Z" fill="#E6E6E6" fill-rule="evenodd"/><path d="M2117.8 308 2116 306.164C2116.54 305.648 2170.88 253.97 2271.83 203L2273 205.278C2172.43 256.059 2118.33 307.486 2117.8 308Z" fill="#E6E6E6" fill-rule="evenodd"/><path d="M2590 809.356C2590 704.036 2593.65 610.132 2593.7 609L2596 609.113C2595.95 610.488 2590.6 747.985 2592.87 876.948L2590.56 877C2590.16 854.455 2590 831.648 2590 809.356Z" fill="#E6E6E6" fill-rule="evenodd"/><path d="M2897 847.07 2898.53 845C2989.95 912.281 3092.97 1027.14 3094 1028.29L3092.07 1030C3091.05 1028.85 2988.2 914.186 2897 847.07Z" fill="#E6E6E6" fill-rule="evenodd"/><path d="M2897 1116.8 2898.85 1115C2899.38 1115.54 2951.55 1169.88 3003 1270.83L3000.7 1272C2949.44 1171.43 2897.52 1117.33 2897 1116.8Z" fill="#E6E6E6" fill-rule="evenodd"/><path d="M2393.64 1589C2498.96 1589 2592.87 1593.26 2594 1593.31L2593.89 1596C2592.51 1595.94 2455.01 1589.7 2326.05 1592.34L2326 1589.65C2348.54 1589.19 2371.35 1589 2393.64 1589Z" fill="#E6E6E6" fill-rule="evenodd"/><path d="M2356.92 1897 2359 1898.53C2291.36 1989.95 2175.88 2092.97 2174.72 2094L2173 2092.07C2174.16 2091.05 2289.44 1988.2 2356.92 1897Z" fill="#E6E6E6" fill-rule="evenodd"/><path d="M2086.21 1897 2088 1898.84C2087.47 1899.35 2033.47 1951.03 1933.16 2002L1932 1999.72C2031.93 1948.94 2085.68 1897.51 2086.21 1897Z" fill="#E6E6E6" fill-rule="evenodd"/><path d="M1611 1775.5C1611 1794 1586.82 1809 1557 1809 1527.18 1809 1503 1794 1503 1775.5 1503 1757 1527.18 1742 1557 1742 1586.82 1742 1611 1757 1611 1775.5Z" fill="#2A5082" fill-rule="evenodd"/><path d="M1317.15 1511.23C1328.25 1521.91 1323.29 1545.09 1306.06 1563 1288.83 1580.92 1265.87 1586.78 1254.76 1576.1 1243.66 1565.42 1248.62 1542.25 1265.85 1524.33 1283.08 1506.42 1306.04 1500.56 1317.15 1511.23Z" fill="#7F7F7F" fill-rule="evenodd"/><path d="M1868 1892.5C1868 1911 1843.82 1926 1814 1926 1784.18 1926 1760 1911 1760 1892.5 1760 1874 1784.18 1859 1814 1859 1843.82 1859 1868 1874 1868 1892.5Z" fill="#FFC000" fill-rule="evenodd"/><path d="M1207 1537.83C1222.52 1555 1212.62 1589.23 1184.9 1614.29 1157.17 1639.36 1122.11 1645.76 1106.6 1628.6 1091.08 1611.44 1100.98 1577.2 1128.71 1552.14 1156.43 1527.07 1191.49 1520.67 1207 1537.83Z" fill="#2A5082" fill-rule="evenodd"/><path d="M1832.11 1938.4C1848.47 1954.76 1840.31 1989.45 1813.88 2015.88 1787.45 2042.31 1752.76 2050.47 1736.4 2034.11 1720.04 2017.75 1728.2 1983.06 1754.63 1956.63 1781.06 1930.2 1815.75 1922.04 1832.11 1938.4Z" fill="#7F7F7F" fill-rule="evenodd"/><path d="M1463 556.5C1463 586.6 1448 611 1429.5 611 1411 611 1396 586.6 1396 556.5 1396 526.4 1411 502 1429.5 502 1448 502 1463 526.4 1463 556.5Z" fill="#2A5082" fill-rule="evenodd"/><path d="M1680.89 264.911C1698.8 282.138 1704.67 305.104 1693.99 316.208 1683.31 327.312 1660.13 322.348 1642.22 305.122 1624.31 287.895 1618.44 264.929 1629.12 253.825 1639.8 242.721 1662.98 247.685 1680.89 264.911Z" fill="#7F7F7F" fill-rule="evenodd"/><path d="M1346 813C1346 842.824 1331 867 1312.5 867 1294 867 1279 842.824 1279 813 1279 783.177 1294 759 1312.5 759 1331 759 1346 783.177 1346 813Z" fill="#7F7F7F" fill-rule="evenodd"/><path d="M1652.94 127.804C1678.01 155.53 1684.41 190.584 1667.25 206.101 1650.09 221.617 1615.85 211.719 1590.79 183.993 1565.72 156.267 1559.32 121.213 1576.48 105.697 1593.65 90.1804 1627.88 100.078 1652.94 127.804Z" fill="#2A5082" fill-rule="evenodd"/><path d="M1248.55 753.819C1274.98 780.248 1283.14 814.935 1266.78 831.296 1250.42 847.657 1215.73 839.495 1189.3 813.066 1162.87 786.637 1154.71 751.95 1171.07 735.589 1187.43 719.228 1222.12 727.39 1248.55 753.819Z" fill="#FFC000" fill-rule="evenodd"/><path d="M2703 429.5C2703 448.002 2678.82 463 2649 463 2619.18 463 2595 448.002 2595 429.5 2595 410.999 2619.18 396 2649 396 2678.82 396 2703 410.999 2703 429.5Z" fill="#2A5082" fill-rule="evenodd"/><path d="M2951.71 628.469C2962.81 639.147 2957.85 662.325 2940.62 680.237 2923.4 698.149 2900.43 704.014 2889.33 693.335 2878.22 682.656 2883.19 659.479 2900.41 641.567 2917.64 623.654 2940.6 617.79 2951.71 628.469Z" fill="#7F7F7F" fill-rule="evenodd"/><path d="M2447 312.5C2447 331.002 2422.6 346 2392.5 346 2362.4 346 2338 331.002 2338 312.5 2338 293.999 2362.4 279 2392.5 279 2422.6 279 2447 293.999 2447 312.5Z" fill="#7F7F7F" fill-rule="evenodd"/><path d="M3099.69 575.865C3115.21 593.028 3105.31 627.261 3077.59 652.326 3049.86 677.39 3014.81 683.795 2999.29 666.631 2983.77 649.468 2993.67 615.235 3021.4 590.171 3049.12 565.106 3084.18 558.701 3099.69 575.865Z" fill="#2A5082" fill-rule="evenodd"/><path d="M2469.9 170.539C2486.26 186.899 2478.09 221.587 2451.67 248.016 2425.24 274.445 2390.55 282.606 2374.19 266.246 2357.83 249.885 2365.99 215.197 2392.42 188.768 2418.85 162.34 2453.53 154.178 2469.9 170.539Z" fill="#FFC000" fill-rule="evenodd"/><path d="M2808 1648.5C2808 1678.6 2793 1703 2774.5 1703 2756 1703 2741 1678.6 2741 1648.5 2741 1618.4 2756 1594 2774.5 1594 2793 1594 2808 1618.4 2808 1648.5Z" fill="#2A5082" fill-rule="evenodd"/><path d="M2562.12 1899.79C2580.04 1917.01 2585.9 1939.98 2575.22 1951.08 2564.54 1962.19 2541.36 1957.22 2523.45 1940 2505.54 1922.77 2499.68 1899.8 2510.35 1888.7 2521.03 1877.6 2544.21 1882.56 2562.12 1899.79Z" fill="#7F7F7F" fill-rule="evenodd"/><path d="M2925 1392C2925 1421.82 2910 1446 2891.5 1446 2873 1446 2858 1421.82 2858 1392 2858 1362.18 2873 1338 2891.5 1338 2910 1338 2925 1362.18 2925 1392Z" fill="#7F7F7F" fill-rule="evenodd"/><path d="M2613.38 2020.81C2638.44 2048.54 2644.85 2083.59 2627.68 2099.11 2610.52 2114.62 2576.29 2104.73 2551.22 2077 2526.16 2049.27 2519.75 2014.22 2536.92 1998.7 2554.08 1983.19 2588.31 1993.09 2613.38 2020.81Z" fill="#2A5082" fill-rule="evenodd"/><path d="M3014.87 1391.91C3041.3 1418.34 3049.46 1453.03 3033.1 1469.39 3016.74 1485.75 2982.05 1477.59 2955.62 1451.16 2929.2 1424.73 2921.03 1390.05 2937.39 1373.68 2953.75 1357.32 2988.44 1365.49 3014.87 1391.91Z" fill="#FFC000" fill-rule="evenodd"/><g clip-path="url(#clip4)" filter="url(#fx0)" transform="translate(1741 1303)"><g><path d="M8.11328-148.824C27.3268-161.499 48.8815-167.836 72.7773-167.836 90.1341-167.836 104.302-163.941 115.281-156.15 126.26-148.36 131.75-138.289 131.75-125.937 131.75-109.469 122.224-98.4492 103.172-92.8789L103.172-91.5469C105.109-91.0625 107.451-90.4167 110.195-89.6094 119.156-91.7083 126.2-95.987 131.326-102.445 136.452-108.904 139.016-116.694 139.016-125.816 139.016-137.28 134.293-147.452 124.848-156.332L124.848-157.059 126.18-155.969C136.755-147.815 142.043-137.361 142.043-124.605 142.043-107.007 132.921-94.7357 114.676-87.793 122.587-84.1601 128.743-78.9935 133.143-72.293 137.542-65.5924 139.742-58.0443 139.742-49.6484 139.742-37.6198 135.383-27.9928 126.664-20.7676 117.945-13.5423 106.32-9.92969 91.7891-9.92969L5.08594-9.92969 21.7969-24.2187 21.7969-76.6523C17.0339-76.6523 11.4635-76.168 5.08594-75.1992L4.11719-78.7109C11.3021-79.4375 17.1953-79.8008 21.7969-79.8008L21.7969-86.2187 18.7695-86.2187C14.2487-86.2187 8.55729-85.8958 1.69531-85.25L7.02344-96.875 8.96094-96.7539C12.1094-96.5117 14.4909-96.3906 16.1055-96.3906 18.5273-96.3906 20.4245-96.2695 21.7969-96.0273L21.7969-141.559ZM46.0156-150.641 46.0156-96.0273C46.9036-96.1081 47.5091-96.1484 47.832-96.1484L50.0117-96.0273C50.3346-96.0273 51.0208-96.0273 52.0703-96.0273L52.0703-145.555C59.013-148.784 65.7943-150.398 72.4141-150.398 80.0026-150.398 85.9967-149.026 90.3965-146.281 94.7962-143.536 98.5299-138.854 101.598-132.234L98.207-134.172C92.1523-143.294 83.5143-147.855 72.293-147.855 65.9961-147.855 60.345-146.079 55.3398-142.527L55.3398-96.0273 60.4258-96.0273C75.845-96.0273 87.3288-98.5905 94.8769-103.717 102.425-108.843 106.199-116.694 106.199-127.27 106.199-136.553 103.071-144.041 96.8144-149.732 90.5579-155.424 82.3437-158.27 72.1719-158.27 63.2109-158.27 54.4922-155.727 46.0156-150.641ZM46.0156-86.0976 46.0156-19.375 52.0703-19.375 52.0703-78.832C57.8021-79.2357 61.9193-79.4375 64.4219-79.4375 77.8229-79.4375 87.5306-78.1862 93.5449-75.6836 99.5592-73.181 104.342-68.418 107.895-61.3945L106.441-61.3945C102.486-66.9648 97.5208-70.8197 91.5469-72.959 85.5729-75.0983 76.8138-76.168 65.2695-76.168L55.3398-75.9258 55.3398-19.375 59.2148-19.375 76.7734-19.9805C99.539-21.595 110.922-32.6549 110.922-53.1602 110.922-65.9961 107.168-74.7754 99.6601-79.498 92.1523-84.2207 78.1055-86.582 57.5195-86.582 55.5013-86.582 51.6667-86.4206 46.0156-86.0976ZM136.715-77.6211C145.353-70.9206 149.672-60.7487 149.672-47.1055 149.672-33.3815 144.868-22.0391 135.262-13.0781 125.897-4.35938 112.133 0 93.9687 0L11.625 0 9.56641-3.26953 85.9766-3.26953C102.607-3.26953 114.595-4.96484 121.941-8.35547 138.249-15.944 146.402-29.1432 146.402-47.9531 146.402-58.4479 142.689-67.974 135.262-76.5312ZM164.809-165.293 222.207-165.293 205.98-148.824 205.98-22.7656 221.238-9.92969 164.809-9.92969 181.641-23.8555 181.641-150.156ZM227.656-158.391 215.305-146.16 215.305-22.7656 235.648 0 172.68 0 169.652-3.26953 228.504-3.26953 211.914-21.5547 211.914-147.25 225.598-160.812ZM403.547-165.293 386.957-148.461 386.957-24.0977 401.852-9.92969 346.148-9.92969 362.98-24.0977 362.98-105.594 324.594 0 312.969 0 312-3.26953 322.535-3.26953 362.98-115.887 362.98-134.414 317.934-10.0508 309.457-10.0508 276.277-107.773 276.277-43.7148C276.277-35.1575 276.842-29.1029 277.973-25.5508 279.103-21.9987 281.767-18.0833 285.965-13.8047L296.863 0 233.531 0 231.352-3.26953 290.809-3.26953 286.328-9.92969 232.32-9.92969 234.863-11.2617C243.824-16.1862 249.738-21.1712 252.603-26.2168 255.469-31.2624 256.902-39.2344 256.902-50.1328L256.902-150.277 240.918-165.293 303.523-165.293 285.965-149.43 320.234-48.0742 324.594-58.6094 293.594-148.461 309.457-160.207 312-158.148 296.863-147.492 325.684-63.0898 356.926-149.43 342.152-165.293ZM266.469-136.594 266.469-49.6484C266.469-36.3281 267.74-27.1654 270.283-22.1602 272.826-17.1549 278.094-13.5221 286.086-11.2617L284.996-13.0781C277.085-18.5677 273.129-26.4792 273.129-36.8125L273.129-45.7734 273.129-117.34ZM410.328-155.848 396.644-146.039 396.644-23.9766 417.715 0 353.414 0 351.719-3.26953 410.328-3.26953 393.496-22.2812 393.496-148.098 407.785-157.906Z" fill="#2A5082" transform="matrix(1 0 0 1 164.9 327)"/></g></g><text fill="#2A5082" font-family="Algerian,Algerian_MSFontService,sans-serif" font-weight="400" font-stretch="extra-condensed" font-size="248" transform="matrix(1 0 0 1 1894.91 1630)">BIM</text><g><g><g><path d="M111.462 268.773C111.456 382.286 203.471 474.311 316.983 474.316 430.495 474.322 522.52 382.307 522.527 268.795 522.527 268.788 522.527 268.781 522.527 268.773 522.533 155.261 430.518 63.236 317.005 63.2295 203.493 63.2236 111.468 155.238 111.462 268.751 111.462 268.758 111.462 268.766 111.462 268.773Z" fill="#E9EAEB" transform="matrix(1 0 0 1.00208 1784.09 461)"/><path d="M316.994 131.224C241.105 128.853 178.655 192.094 178.655 270.354 178.655 310.67 195.256 347.034 221.342 372.33 244.267 394.464 265.611 414.227 265.611 446.638L368.377 446.638C368.377 414.227 388.931 394.464 412.645 372.33 438.732 347.034 455.333 310.67 455.333 270.354 455.333 192.094 392.883 128.853 316.994 131.224Z" fill="#FFFFFF" transform="matrix(1 0 0 1.00208 1784.09 461)"/><path d="M376.283 446.638 360.472 446.638C360.472 411.064 382.606 389.721 405.531 367.586L406.322 366.796C432.408 342.29 446.638 306.717 446.638 270.354 446.638 233.99 432.408 199.999 406.322 174.702 381.816 150.987 350.195 138.339 316.204 139.13 282.212 138.339 249.801 150.987 225.295 174.702 199.208 199.999 184.979 233.99 184.979 270.354 184.979 306.717 199.999 341.5 225.295 366.796L226.086 367.586C249.801 389.721 271.145 411.064 271.145 446.638L255.335 446.638C255.335 417.389 237.153 400.788 215.018 378.654L214.228 377.863C185.77 350.195 169.169 310.67 169.169 270.354 169.169 230.038 185.77 190.512 214.228 162.845 241.896 135.968 278.259 121.739 316.204 123.32 354.148 122.529 389.721 136.758 417.389 162.845 445.847 190.512 462.448 229.248 462.448 270.354 462.448 310.67 445.847 350.195 417.389 377.863L416.598 378.654C394.464 400.788 376.283 417.389 376.283 446.638Z" fill="#2A5082" transform="matrix(1 0 0 1.00208 1784.09 461)"/><path d="M415.808 288.536 415.808 249.01 389.721 249.01C388.14 241.105 385.768 237.153 382.606 231.619L401.579 212.647 373.911 184.979 354.938 203.951C349.405 200.789 343.872 198.418 337.547 196.837L337.547 170.75 298.022 170.75 298.022 196.837C291.698 198.418 286.164 200.789 280.631 203.951L260.868 184.189 233.2 211.857 252.172 230.829C249.01 236.362 246.639 240.315 245.058 248.22L218.971 248.22 218.971 287.745 245.058 287.745C246.639 295.65 249.01 299.603 252.172 305.136L233.2 324.108 260.868 351.776 279.84 332.804C285.374 335.966 290.907 338.338 297.231 339.919L297.231 366.796 336.757 366.796 336.757 339.919C343.081 338.338 348.615 335.966 354.148 332.804L373.12 351.776 400.788 324.108 381.816 305.927C384.978 300.394 387.349 296.441 388.931 288.536L415.808 288.536Z" fill="#E6E6E6" transform="matrix(1 0 0 1.00208 1784.09 461)"/><path d="M344.662 375.492 289.326 375.492 289.326 346.243C286.955 345.453 283.793 343.872 281.421 343.081L260.868 363.634 221.342 324.899 241.105 305.136C239.524 302.765 238.734 300.394 237.943 297.231L209.485 297.231 209.485 241.896 237.943 241.896C238.734 238.734 240.315 235.572 241.105 233.2L221.342 212.647 260.077 173.912 280.631 194.465C283.002 192.884 286.164 192.094 288.536 191.303L288.536 162.845 343.872 162.845 343.872 191.303C346.243 192.094 349.405 193.675 351.776 194.465L372.33 174.702 411.064 214.228 391.302 234.781C392.883 237.153 393.673 240.315 394.464 243.477L422.922 243.477 422.922 298.812 395.254 298.812C394.464 301.975 392.883 304.346 392.093 306.717L411.855 326.48 372.33 366.005 351.776 345.453C349.405 347.034 346.243 347.824 343.872 348.615L343.872 375.492ZM305.136 359.682 328.852 359.682 328.852 334.385 334.385 332.804C339.919 331.224 345.453 328.852 350.195 326.48L355.729 323.318 373.12 340.709 389.721 324.108 372.33 306.717 376.283 300.394C378.654 295.65 381.025 292.488 381.816 286.164L383.397 279.84 408.693 279.84 408.693 256.125 383.397 256.125 381.816 249.801C380.235 242.686 378.654 239.524 375.492 234.781L372.33 229.248 389.721 211.857 373.12 195.256 355.729 213.438 350.195 210.276C345.453 207.113 339.919 205.532 334.385 203.951L328.852 202.37 328.852 177.864 305.136 177.864 305.136 202.37 299.603 203.951C294.069 205.532 288.536 207.904 283.793 210.276L278.259 213.438 260.868 196.046 244.267 212.647 261.658 230.038 258.497 235.572C255.335 240.315 253.753 244.267 252.172 250.591L250.591 256.916 225.295 256.916 225.295 280.631 250.591 280.631 252.172 286.955C253.753 293.279 255.335 296.441 257.706 301.184L261.658 307.508 244.267 324.108 260.868 340.709 278.259 323.318 283.793 326.48C288.536 328.852 294.069 331.224 299.603 332.804L305.136 334.385 305.136 359.682Z" fill="#2A5082" transform="matrix(1 0 0 1.00208 1784.09 461)"/><path d="M289.326 268.773C289.326 284.053 301.714 296.441 316.994 296.441 332.275 296.441 344.662 284.053 344.662 268.773 344.662 253.493 332.275 241.105 316.994 241.105 301.714 241.105 289.326 253.493 289.326 268.773Z" fill="#FFFFFF" transform="matrix(1 0 0 1.00208 1784.09 461)"/><path d="M316.994 304.346C297.231 304.346 281.421 288.536 281.421 268.773 281.421 249.01 297.231 233.2 316.994 233.2 336.757 233.2 352.567 249.01 352.567 268.773 352.567 288.536 336.757 304.346 316.994 304.346ZM316.994 249.01C305.927 249.01 297.231 257.706 297.231 268.773 297.231 279.84 305.927 288.536 316.994 288.536 328.061 288.536 336.757 279.84 336.757 268.773 336.757 257.706 328.061 249.01 316.994 249.01ZM332.014 557.309 301.975 557.309 286.164 541.499 273.516 541.499 273.516 525.689 292.488 525.689 308.298 541.499 325.69 541.499 341.5 525.689 360.472 525.689 360.472 541.499 347.824 541.499ZM257.706 462.448 376.283 462.448 376.283 478.258 257.706 478.258ZM257.706 494.068 376.283 494.068 376.283 509.879 257.706 509.879Z" fill="#2A5082" transform="matrix(1 0 0 1.00208 1784.09 461)"/><path d="M99.9361 321.721 150.331 308.219 154.418 323.492 104.031 336.994ZM154.813 424.74 191.698 387.855 202.884 399.033 165.991 435.926ZM252.868 57.5649 268.133 53.47 281.643 103.865 266.37 107.96ZM154.908 119.145 166.094 107.96 202.979 144.853 191.801 156.03ZM100.371 221.587 104.458 206.323 154.853 219.825 150.758 235.089ZM482.661 219.706 533.056 206.204 537.143 221.469 486.756 234.971ZM483.159 324.045 487.246 308.781 537.641 322.282 533.546 337.555ZM434.685 399.104 445.871 387.927 482.764 424.819 471.578 435.998ZM355.824 103.699 369.326 53.304 384.598 57.3989 371.097 107.794ZM434.796 144.971 471.689 108.078 482.867 119.256 445.973 156.149Z" fill="#BCC0C4" transform="matrix(1 0 0 1.00208 1784.09 461)"/></g></g></g><g clip-path="url(#clip5)" filter="url(#fx1)" transform="translate(1423 967)"><g><path d="M141.922-161.055 119.277-116.492C117.824-129.167 113.848-138.854 107.35-145.555 100.851-152.255 92.2734-155.605 81.6172-155.605 66.4401-155.605 54.6335-149.712 46.1973-137.926 37.7611-126.139 33.543-109.63 33.543-88.3984 33.543-41.6562 52.6758-18.2852 90.9414-18.2852L110.437-18.2852 110.437-81.1328 79.9219-81.1328C73.3021-81.1328 68.5592-81.4961 65.6934-82.2226 62.8275-82.9492 60.0625-84.5234 57.3984-86.9453L57.3984-89.9726C60.3047-87.793 63.2109-86.36 66.1172-85.6738 69.0234-84.9876 73.7461-84.6445 80.2851-84.6445L110.437-84.6445 110.437-91.1836 76.7734-91.1836 71.3242-91.1836C59.2956-91.1836 53.2812-95.543 53.2812-104.262 53.2812-107.652 54.2904-110.559 56.3086-112.98 58.3268-115.402 60.7487-116.613 63.5742-116.613 65.6732-116.613 67.5098-115.846 69.084-114.312 70.6582-112.779 71.4453-110.962 71.4453-108.863 71.4453-105.311 70.1536-103.253 67.5703-102.687L64.6641-102.082C63.6953-101.84 63.2109-101.436 63.2109-100.871 63.2109-99.8216 64.543-99.2969 67.207-99.2969L71.3242-99.2969 151.246-99.2969 134.535-82.9492 134.535-23.25 150.035-9.92969 88.1562-9.92969 75.9258-9.92969C65.6732-9.92969 57.1966-11.181 50.4961-13.6836 43.7956-16.1862 37.0143-20.6263 30.1523-27.0039 13.9258-41.8581 5.8125-61.7578 5.8125-86.7031 5.8125-112.456 13.4818-132.557 28.8203-147.008 42.2213-159.682 58.125-166.02 76.5312-166.02 84.7656-166.02 94.2109-164.566 104.867-161.66 115.766-158.673 122.951-157.18 126.422-157.18 131.508-157.18 136.674-158.471 141.922-161.055ZM149.187-153.426 128.48-112.738 125.574-114.07 146.402-154.879ZM110.437-135.02 108.258-136.594C99.0547-143.133 90.6588-146.402 83.0703-146.402 73.8672-146.402 65.9154-143.133 59.2148-136.594 54.3711-131.75 50.8796-125.413 48.7402-117.582 46.6009-109.751 45.5312-99.418 45.5312-86.582 45.5312-70.2747 47.1458-57.8021 50.375-49.1641 53.6042-40.526 59.5378-32.7357 68.1758-25.793L68.1758-24.4609C58.8112-30.0312 52.0703-37.8822 47.9531-48.0137 43.8359-58.1452 41.7773-71.8893 41.7773-89.2461 41.7773-108.379 45.3698-123.253 52.5547-133.869 59.7396-144.485 69.8307-149.793 82.8281-149.793 94.1302-149.793 103.333-145.111 110.437-135.746ZM156.453-92.3945 143.98-79.9219 143.98-23.1289 164.082 0 116.008-0.363281 72.4141 0.121094C69.6693 0.121094 67.5703 0.0403646 66.1172-0.121094 61.0312-0.686198 55.9049-2.90625 50.7383-6.78125L53.2812-6.78125C58.7708-4.35937 66.2786-3.14844 75.8047-3.14844L81.8594-3.26953 157.301-3.26953 140.59-21.7969 140.59-81.1328 154.516-95.1797Z" fill="#2A5082" transform="matrix(1 0 0 1 164.645 328)"/></g></g><text fill="#2A5082" font-family="Algerian,Algerian_MSFontService,sans-serif" font-weight="400" font-stretch="extra-condensed" font-size="248" transform="matrix(1 0 0 1 1576.66 1295)">G</text><g clip-path="url(#clip6)" filter="url(#fx2)" transform="translate(1641 1071)"><g><path d="M90.6372-109.973 89.3481-108.442C83.8696-101.729 79.519-94.021 76.2964-85.3198 75.7593-86.5552 75.3564-87.4683 75.0879-88.0591 72.1338-94.5044 68.9648-98.667 65.581-100.547 62.1973-102.427 56.1279-103.367 47.373-103.367 43.3447-103.367 38.5107-103.232 32.8711-102.964L32.8711-65.9033 38.0273-65.9033 38.0273-98.6938C42.1094-99.0698 46.0034-99.2578 49.7095-99.2578 56.5308-99.2578 61.5527-98.5327 64.7754-97.0825 67.998-95.6323 70.8716-92.8125 73.396-88.623 72.644-89.1601 72.1069-89.563 71.7847-89.8315 67.4341-93.269 64.292-95.3101 62.3584-95.9546 60.4248-96.5991 56.6113-96.9214 50.918-96.9214 49.1992-96.9214 46.1377-96.814 41.7334-96.5991L40.0415-96.5185 40.0415-65.9033 54.8657-65.9033 65.2588-80.1636 65.2588-45.4394 54.8657-58.894 32.8711-58.894 32.8711-13.6963 38.0273-13.6963 38.0273-55.1074 55.5103-55.1074 57.605-53.0127 40.0415-53.0127 40.0415-13.6963C50.9985-13.6963 58.7866-14.4751 63.4058-16.0327 68.0249-17.5903 71.6504-20.6519 74.2822-25.2173L78.5522-32.5488C78.7134-32.8711 79.0356-33.4619 79.519-34.3213 80.9155-28.4131 82.6477-23.6865 84.7156-20.1416 86.7834-16.5967 90.2075-12.4609 94.9878-7.73437L4.67285-7.73437 16.9189-17.0801 16.9189-53.0127C12.4072-52.4756 8.32519-51.0791 4.67285-48.8232L3.54492-50.5151C6.82129-52.8784 11.2793-54.4092 16.9189-55.1074L16.9189-58.894C16.0059-59.0015 15.3613-59.0552 14.9854-59.0552 9.50684-59.0552 4.51172-57.041 0-53.0127 2.4707-61.6064 8.11035-65.9033 16.9189-65.9033L16.9189-100.305 4.67285-109.973ZM94.5044-104.333 93.9404-103.608C87.3877-94.7998 83.0102-87.4145 80.8081-81.4526L79.4385-83.1445C83.0371-91.4697 87.6831-99.0967 93.3765-106.025ZM70.8179-77.5049 70.8179-41.8945 68.8037-42.9419 68.8037-78.5522ZM104.172-7.25098 99.9829 0 12.0044 0 10.7153-2.17529 98.9355-2.17529 101.675-7.25098C93.9404-14.3945 88.4888-22.0215 85.3198-30.1318L87.8979-29.165C90.852-22.29 95.8472-15.415 102.883-8.54004ZM197.782-109.973C191.659-106.804 187.711-103.904 185.938-101.272 183.253-97.1899 181.91-91.04 181.91-82.8223L181.91-77.5854 181.91-6.60644 168.294-6.60644 130.267-80.4053 130.267-36.6577 130.186-33.0322 131.153-21.4307C132.227-16.0596 134.671-12.085 138.485-9.50683L139.129-8.94287C131.717-11.4136 128.011-19.3359 128.011-32.71L128.092-40.2832 128.092-84.353 123.741-92.8125 123.741-46.4062C123.741-31.6894 124.708-22.0483 126.641-17.4829 128.575-12.9175 133.114-9.5874 140.257-7.49268L147.266 0 103.599 0 102.31-2.17529 142.674-2.17529 138.485-6.60644 100.941-6.60644C107.493-8.96973 111.844-12.1387 113.993-16.1133 116.141-20.0879 117.215-26.9092 117.215-36.5771L117.215-101.03 106.5-109.973 147.266-109.973 135.826-102.319 174.82-26.2646 174.82-35.9326 141.385-101.03 152.664-108.684 154.195-107.153 144.205-100.386 174.82-40.2832 174.82-77.9077 174.82-82.1777C174.82-91.5234 174.055-97.7673 172.524-100.909 170.993-104.052 167.22-107.073 161.204-109.973ZM200.601-104.011 199.151-101.594C195.015-100.627 192.209-98.8415 190.732-96.2366 189.255-93.6316 188.516-89.2407 188.516-83.064L188.516 0 171.195 0 170.147-2.17529 186.341-2.17529 186.341-82.2583C186.341-89.8315 187.321-95.1086 189.282-98.0896 191.242-101.071 195.015-103.044 200.601-104.011ZM292.304-109.973 291.015-108.442C285.536-101.729 281.186-94.021 277.963-85.3198 277.426-86.5552 277.023-87.4683 276.755-88.0591 273.8-94.5044 270.632-98.667 267.248-100.547 263.864-102.427 257.795-103.367 249.04-103.367 245.011-103.367 240.177-103.232 234.538-102.964L234.538-65.9033 239.694-65.9033 239.694-98.6938C243.776-99.0698 247.67-99.2578 251.376-99.2578 258.197-99.2578 263.219-98.5327 266.442-97.0825 269.665-95.6323 272.538-92.8125 275.063-88.623 274.311-89.1601 273.774-89.563 273.451-89.8315 269.101-93.269 265.959-95.3101 264.025-95.9546 262.091-96.5991 258.278-96.9214 252.585-96.9214 250.866-96.9214 247.804-96.814 243.4-96.5991L241.708-96.5185 241.708-65.9033 256.532-65.9033 266.925-80.1636 266.925-45.4394 256.532-58.894 234.538-58.894 234.538-13.6963 239.694-13.6963 239.694-55.1074 257.177-55.1074 259.272-53.0127 241.708-53.0127 241.708-13.6963C252.665-13.6963 260.453-14.4751 265.072-16.0327 269.692-17.5903 273.317-20.6519 275.949-25.2173L280.219-32.5488C280.38-32.8711 280.702-33.4619 281.186-34.3213 282.582-28.4131 284.314-23.6865 286.382-20.1416 288.45-16.5967 291.874-12.4609 296.654-7.73437L206.34-7.73437 218.586-17.0801 218.586-53.0127C214.074-52.4756 209.992-51.0791 206.34-48.8232L205.212-50.5151C208.488-52.8784 212.946-54.4092 218.586-55.1074L218.586-58.894C217.673-59.0015 217.028-59.0552 216.652-59.0552 211.173-59.0552 206.178-57.041 201.667-53.0127 204.137-61.6064 209.777-65.9033 218.586-65.9033L218.586-100.305 206.34-109.973ZM296.171-104.333 295.607-103.608C289.054-94.7998 284.677-87.4145 282.475-81.4526L281.105-83.1445C284.704-91.4697 289.35-99.0967 295.043-106.025ZM272.485-77.5049 272.485-41.8945 270.47-42.9419 270.47-78.5522ZM305.839-7.25098 301.65 0 213.671 0 212.382-2.17529 300.602-2.17529 303.341-7.25098C295.607-14.3945 290.155-22.0215 286.986-30.1318L289.565-29.165C292.519-22.29 297.514-15.415 304.55-8.54004ZM311.309-100.305C324.038-107.664 337.734-111.343 352.397-111.343 363.784-111.343 373.17-108.872 380.555-103.931 387.941-98.9893 391.633-92.7051 391.633-85.0781 391.633-78.8476 389.216-73.3288 384.382-68.5217 379.548-63.7146 372.942-60.2368 364.563-58.0884 368.269-47.8833 373.304-37.9468 379.669-28.2788 386.034-18.6108 392.412-11.1987 398.804-6.04248L397.595-5.63965C389.592-2.90039 381.75 0.966797 374.07 5.96191L372.861 6.76758 372.458 4.18945C369.021-16.5967 364.214-34.2139 358.037-48.6621L357.715-49.4678C354.009-47.749 349.041-46.3794 342.81-45.3589L342.166-45.2783 342.166-15.1465 356.345 0 314.692 0 313.403-2.17529 351.753-2.17529 340.071-14.5825 340.071-47.0508 341.763-47.2925C347.886-47.937 353.015-49.1455 357.151-50.918 356.829-51.5625 356.641-51.9653 356.587-52.1265L355.781-54.4629C355.728-54.624 355.593-54.9463 355.378-55.4297 352.048-54.4629 345.764-53.4155 336.526-52.2876L335.64-52.1265 335.64-16.1938 344.824-6.60644 309.214-6.60644 319.688-16.1938 319.688-43.2642 319.043-43.1836C315.928-42.4853 313.108-41.7065 310.583-40.8472L309.939-40.6055 309.214-42.2168C311.577-43.1299 313.43-43.7476 314.773-44.0698L319.043-45.1172 319.688-45.2783 319.688-49.4678C316.519-49.4678 312.571-48.7695 307.844-47.373L306.958-47.0508C307.065-47.8027 307.603-49.5483 308.569-52.2876 308.677-52.5024 309.053-53.7109 309.697-55.9131 309.751-56.0742 309.832-56.3159 309.939-56.6382 312.356-56.477 314.236-56.3965 315.579-56.3965 317.029-56.3965 318.372-56.477 319.607-56.6382L319.607-96.2768C317.136-97.7808 314.585-99.043 311.953-100.063ZM335.64-102.4 335.64-58.9746C337.197-58.9746 338.674-59.1089 340.071-59.3774L340.071-99.0161C343.025-99.8218 346.57-100.225 350.706-100.225 361.179-100.225 368.296-96.7871 372.056-89.9121 368.081-93.1348 364.59-95.3503 361.582-96.5588 358.574-97.7673 354.976-98.3716 350.786-98.3716 347.51-98.3716 344.636-98.0493 342.166-97.4048L342.166-59.3774 343.052-59.5386C353.633-61.4722 361.488-64.5203 366.617-68.6829 371.747-72.8455 374.312-78.2568 374.312-84.917 374.312-90.8789 372.002-95.8069 367.383-99.7009 362.764-103.595 356.936-105.542 349.9-105.542 344.26-105.542 339.507-104.495 335.64-102.4ZM374.553-54.0601C377.937-42.9956 383.926-32.1728 392.52-21.5918 397.891-14.9853 404.685-9.05029 412.903-3.78662 400.603-0.510254 389.055 4.48486 378.259 11.1987L377.534 11.6821 375.923 10.3931C386.182 3.6792 397.112-1.26221 408.713-4.43115 393.245-14.7437 381.079-31.2329 372.217-53.8989L371.733-55.2686C388.169-61.499 396.387-71.0059 396.387-83.7891 396.387-89.0527 394.265-94.7998 390.022-101.03 395.447-96.0889 398.159-89.8047 398.159-82.1777 398.159-69.8242 390.29-60.4517 374.553-54.0601ZM486.97-109.973 478.591-100.466 491.804-65.3393 495.027-67.1118 483.103-98.855 491.643-108.684 493.738-107.798 485.601-98.3716 496.88-68.3203C497.524-68.8037 497.9-69.0991 498.008-69.2065L500.667-71.4624C502.278-72.7515 503.298-73.6645 503.728-74.2017 505.125-68.0786 507.273-62.6001 510.173-57.7661 508.616-57.8735 507.488-57.9272 506.79-57.9272 501.687-57.9272 497.954-57.1216 495.591-55.5103L510.173-15.9521 522.258-6.60644 481.572-6.60644 492.69-15.9521 483.748-39.4775C477.839-33.5156 473.301-27.8491 470.132-22.478L468.279-22.9614C471.448-28.2251 476.174-34.1064 482.458-40.6055L483.103-41.4111 481.572-44.9561C475.181-39.6387 469.89-33.4619 465.701-26.4258L464.25-28.7622C461.458-33.2202 457.886-38.2959 453.535-43.9893L452.729-44.9561C448.594-35.7715 446.526-28.3057 446.526-22.5586 446.526-19.1748 447.103-16.3147 448.258-13.9783 449.413-11.6418 452.192-7.73437 456.597-2.25586 456.973-1.77246 457.563-1.02051 458.369 0L414.863 0 413.252-2.17529 454.26-2.17529 452.891-3.86719C449.346-8.16406 447.023-11.5076 445.922-13.8977 444.821-16.2878 444.27-19.0942 444.27-22.3169 444.27-27.7954 446.499-35.9595 450.957-46.8091L447.412-50.5151C446.714-48.7964 445.828-46.272 444.753-42.9419L442.095-34.7241C440.645-30.3198 439.919-26.6675 439.919-23.7671 439.919-20.7593 440.43-18.2617 441.45-16.2744 442.471-14.2871 444.619-11.5747 447.896-8.13721 448.218-7.81494 448.701-7.30469 449.346-6.60644L409.062-6.60644C416.743-10.5811 422.826-15.9253 427.311-22.6392 431.796-29.353 436.24-39.7192 440.645-53.7378L440.967-54.8657C438.12-57.2827 434.011-58.7598 428.64-59.2969 431.594-63.7012 433.877-68.2934 435.488-73.0737 436.24-72.3755 436.697-71.9458 436.858-71.7847L440.483-68.4009C441.719-67.2192 443.196-66.0107 444.915-64.7754L446.365-68.3203 445.398-69.126C442.712-71.4893 440.457-73.396 438.63-74.8462L437.905-75.4101 439.194-77.1826C442.041-75.3027 444.78-73.1274 447.412-70.6567L458.369-100.789 449.829-109.973ZM467.07-84.1113 458.208-60.7471C458.691-60.21 458.96-59.8877 459.014-59.7803L462.317-56.0742C464.089-54.1406 466.345-51.1328 469.084-47.0508L469.89-45.8423C472.2-48.7427 474.939-51.6162 478.108-54.4629ZM463.445-93.457 450.635-59.6191C454.717-55.4297 458.235-51.2939 461.189-47.2119L464.895-42.0557C464.949-42.0019 465.217-41.6528 465.701-41.0083 466.184-41.4917 466.453-41.7871 466.506-41.8945L467.634-43.2642C467.795-43.479 468.091-43.8281 468.521-44.3115 464.761-50.1123 460.383-55.3491 455.388-60.022L465.701-87.2534ZM510.818-70.3345C512-65.5005 514.954-58.8672 519.68-50.4346 518.499-50.5957 517.827-50.6763 517.666-50.6763L511.14-51.2402C508.186-51.5088 506.038-51.6431 504.695-51.6431 504.48-51.6431 503.943-51.6162 503.083-51.5625L516.538-15.8716 534.504 0 487.856 0 486.326-2.17529 529.106-2.17529 514.604-14.9854 500.264-52.9321C502.09-53.4155 504.185-53.6572 506.548-53.6572 509.448-53.6572 512.671-53.4155 516.216-52.9321L515.249-54.7046C511.812-61.0425 509.502-66.7627 508.32-71.8652ZM627.093-109.973C626.61-109.06 626.287-108.442 626.126-108.12L620.648-98.4521C618.768-95.0146 617.022-90.7178 615.411-85.5615L615.25-85.1587 614.444-85.7226 614.202-86.77C612.645-92.8931 610.429-97.1362 607.556-99.4995 604.682-101.863 600.291-103.044 594.383-103.044 591.966-103.044 589.549-102.937 587.132-102.722L586.165-102.722 586.165-15.3882 595.672-6.60644 558.853-6.60644 570.133-16.0327 570.133-96.1963 564.412-96.2768C558.88-96.2768 554.946-95.1892 552.609-93.0139 550.273-90.8386 548.89-87.0117 548.46-81.5332L546.366-81.5332C546.956-87.8174 548.581-92.1948 551.24-94.6655 553.898-97.1362 558.289-98.3716 564.412-98.3716L569.246-98.291 570.133-98.291 570.133-102.239C567.393-102.561 564.788-102.722 562.318-102.722 555.389-102.722 550.394-101.312 547.332-98.4924 544.271-95.6726 542.579-90.9058 542.257-84.1919L541.29-84.1919C538.98-91.6577 535.409-99.9829 530.575-109.167L530.091-109.973ZM632.169-104.897C628.463-100.171 624.569-92.3291 620.487-81.3721L620.164-80.5664 618.392-82.0972 618.634-82.8223C622.608-93.9404 626.449-101.675 630.155-106.025L630.557-106.509ZM610.658-92.3291C606.522-95.0146 601.688-96.3574 596.156-96.3574 594.92-96.3574 593.631-96.2768 592.288-96.1157L592.611-15.1465 605.421 0 564.251 0 562.398-2.17529 600.99-2.17529 590.194-14.502 590.194-98.4521 594.544-98.5327C599.754-98.5327 603.447-98.1164 605.622-97.2839 607.797-96.4514 609.476-94.7998 610.658-92.3291ZM632.939-109.973 671.127-109.973 660.331-99.0161 660.331-15.1465 670.483-6.60644 632.939-6.60644 644.137-15.8716 644.137-99.9023ZM674.753-105.381 666.535-97.2436 666.535-15.1465 680.07 0 638.175 0 636.161-2.17529 675.317-2.17529 664.279-14.3408 664.279-97.9687 673.383-106.992ZM790.911-135.432 791.798-134.546C784.761-127.778 779.014-120.527 774.556-112.793 770.098-105.059 764.754-92.9736 758.524-76.5381L734.998-14.9854 744.586-6.60644 707.445-6.60644 718.079-15.3882 688.592-99.3384 676.185-109.973 716.146-109.973 704.786-98.6133 731.373-22.9614 734.515-30.4541 710.748-97.4853 718.966-105.623 720.416-104.092 713.245-97.0019 735.562-33.2739 752.642-78.8745C757.745-92.4097 760.296-101.89 760.296-107.314 760.296-112.793 758.282-117.493 754.254-121.414L755.784-121.736C771.414-124.744 783.123-129.309 790.911-135.432ZM795.262-130.518 795.987-128.665C785.728-120.662 775.147-102.4 764.244-73.8794L741.524-14.6631 754.093 0 712.52 0 710.748-2.17529 749.339-2.17529 739.188-14.0991 762.31-74.4434 766.661-85.8838C770.528-95.7666 775.094-104.803 780.357-112.994 785.621-121.185 790.589-127.026 795.262-130.518ZM872.668-109.973 871.379-108.442C865.901-101.729 861.55-94.021 858.328-85.3198 857.791-86.5552 857.388-87.4683 857.119-88.0591 854.165-94.5044 850.996-98.667 847.612-100.547 844.229-102.427 838.159-103.367 829.404-103.367 825.376-103.367 820.542-103.232 814.902-102.964L814.902-65.9033 820.059-65.9033 820.059-98.6938C824.141-99.0698 828.035-99.2578 831.741-99.2578 838.562-99.2578 843.584-98.5327 846.807-97.0825 850.029-95.6323 852.903-92.8125 855.427-88.623 854.675-89.1601 854.138-89.563 853.816-89.8315 849.465-93.269 846.323-95.3101 844.39-95.9546 842.456-96.5991 838.643-96.9214 832.949-96.9214 831.23-96.9214 828.169-96.814 823.765-96.5991L822.073-96.5185 822.073-65.9033 836.897-65.9033 847.29-80.1636 847.29-45.4394 836.897-58.894 814.902-58.894 814.902-13.6963 820.059-13.6963 820.059-55.1074 837.542-55.1074 839.636-53.0127 822.073-53.0127 822.073-13.6963C833.03-13.6963 840.818-14.4751 845.437-16.0327 850.056-17.5903 853.682-20.6519 856.313-25.2173L860.583-32.5488C860.745-32.8711 861.067-33.4619 861.55-34.3213 862.947-28.4131 864.679-23.6865 866.747-20.1416 868.815-16.5967 872.239-12.4609 877.019-7.73437L786.704-7.73437 798.95-17.0801 798.95-53.0127C794.438-52.4756 790.356-51.0791 786.704-48.8232L785.576-50.5151C788.853-52.8784 793.311-54.4092 798.95-55.1074L798.95-58.894C798.037-59.0015 797.393-59.0552 797.017-59.0552 791.538-59.0552 786.543-57.041 782.031-53.0127 784.502-61.6064 790.142-65.9033 798.95-65.9033L798.95-100.305 786.704-109.973ZM876.536-104.333 875.972-103.608C869.419-94.7998 865.042-87.4145 862.839-81.4526L861.47-83.1445C865.068-91.4697 869.714-99.0967 875.408-106.025ZM852.849-77.5049 852.849-41.8945 850.835-42.9419 850.835-78.5522ZM886.204-7.25098 882.014 0 794.036 0 792.747-2.17529 880.967-2.17529 883.706-7.25098C875.972-14.3945 870.52-22.0215 867.351-30.1318L869.929-29.165C872.883-22.29 877.878-15.415 884.915-8.54004Z" fill="#2A5082" transform="matrix(1 0 0 1 115.082 224)"/></g></g><text fill="#2A5082" font-family="Algerian,Algerian_MSFontService,sans-serif" font-weight="400" font-stretch="extra-condensed" font-size="165" transform="matrix(1 0 0 1 1745.09 1295)">enerative</text></g></svg>