<svg width="3013" height="188" xmlns="http://www.w3.org/2000/svg" xmlns:xlink="http://www.w3.org/1999/xlink" xml:space="preserve" overflow="hidden"><defs><filter id="fx0" x="-10%" y="-10%" width="120%" height="120%" filterUnits="userSpaceOnUse" primitiveUnits="userSpaceOnUse"><feComponentTransfer color-interpolation-filters="sRGB"><feFuncR type="discrete" tableValues="0 0"/><feFuncG type="discrete" tableValues="0 0"/><feFuncB type="discrete" tableValues="0 0"/><feFuncA type="linear" slope="0.4" intercept="0"/></feComponentTransfer><feGaussianBlur stdDeviation="2.31127 2.31127"/></filter><clipPath id="clip1"><rect x="552" y="-322" width="3013" height="188"/></clipPath><clipPath id="clip2"><rect x="50" y="43" width="2589" height="98"/></clipPath></defs><g clip-path="url(#clip1)" transform="translate(-552 322)"><g clip-path="url(#clip2)" filter="url(#fx0)" transform="translate(729 -323)"><g><path d="M36.6772-33.2318C40.4058-33.1782 44.2423-33.1514 48.187-33.1514 53.0925-33.1514 57.0912-33.1784 60.1831-33.2324 59.4633-23.5747 58.9483-13.0316 58.638-1.60336 53.6818-0.61762 49.389 0.0581525 45.7595 0.423954 42.13 0.789755 39.0185 0.972656 36.4252 0.972656 31.5704 0.972656 27.0745 0.463954 22.9375-0.553451 18.8006-1.57086 15.2759-3.24208 12.3634-5.56713 9.45089-7.89217 7.23635-10.9405 5.71974-14.7121 4.20313-18.4836 3.44482-22.4686 3.44482-26.667 3.44482-30.2461 4.00619-33.699 5.12892-37.0258 6.25166-40.3527 7.91708-43.4049 10.1252-46.1825 12.3333-48.9601 14.9949-51.2695 18.11-53.1108 21.2251-54.952 24.5391-56.2128 28.0519-56.8931 31.5647-57.5734 35.2368-57.9136 39.0684-57.9136 44.3344-57.9136 50.6368-57.1564 57.9756-55.6421 58.006-52.1922 58.161-48.4914 58.4404-44.5395 51.3946-46.674 45.3425-47.7412 40.2842-47.7412 37.05-47.7412 34.0059-47.2851 31.1519-46.3728 28.2979-45.4605 25.8426-44.0537 23.7861-42.1525 21.7295-40.2514 20.1622-37.8915 19.0843-35.0729 18.0063-32.2544 17.4673-29.3173 17.4673-26.2617 17.4673-22.8718 18.0743-19.8795 19.2885-17.2849 20.5026-14.6903 22.548-12.6739 25.4246-11.2356 28.3012-9.79727 31.6333-9.07812 35.4209-9.07812 36.841-9.07812 38.4957-9.20277 40.3849-9.45205 42.274-9.70134 44.0733-10.0782 45.7826-10.5827L46.4209-23.395 44.0241-23.4248C42.2198-23.4248 39.6492-23.3843 36.3125-23.3032 36.5557-27.4953 36.6772-30.8048 36.6772-33.2318ZM105.534-10.8208C105.177-8.62177 104.644-5.26285 103.936-0.744057 100.614-0.0365168 97.9423 0.426487 95.9214 0.644955 93.9006 0.863422 91.8497 0.972656 89.7689 0.972656 86.1282 0.972656 82.8713 0.612026 79.9983-0.109234 77.1253-0.830494 74.5803-2.17782 72.3633-4.1512 70.1464-6.12459 68.5214-8.51971 67.4883-11.3366 66.4553-14.1534 65.9388-17.1228 65.9388-20.2447 65.9388-23.6595 66.5401-26.9804 67.7426-30.2074 68.9451-33.4344 70.6361-36.0805 72.8155-38.1457 74.9949-40.2109 77.4744-41.6713 80.2541-42.5268 83.0338-43.3823 85.9217-43.8101 88.9178-43.8101 91.7328-43.8101 94.4394-43.4506 97.0378-42.7316 99.6362-42.0127 101.83-40.8244 103.62-39.1668 105.41-37.5092 106.777-35.5327 107.723-33.2372 108.668-30.9417 109.141-28.3978 109.141-25.6057 109.141-24.3172 108.954-22.7394 108.58-20.8722L78.9747-20.8323C78.9569-20.5051 78.9481-19.9779 78.9481-19.2505 78.9481-17.5348 79.2379-15.9714 79.8175-14.5601 80.3971-13.1488 81.2305-11.9614 82.3175-10.9978 83.4046-10.0342 84.7212-9.31802 86.2674-8.84921 87.8135-8.3804 89.3454-8.146 90.8631-8.146 92.7168-8.146 94.6992-8.34272 96.8102-8.73617 98.9212-9.12963 101.829-9.8245 105.534-10.8208ZM79.3533-27.1919 96.6585-27.1533C96.6585-27.8288 96.62-28.4606 96.543-29.0489 96.4659-29.6372 96.2971-30.2958 96.0367-31.0246 95.7762-31.7535 95.4325-32.3837 95.0054-32.9152 94.5784-33.4467 94.0805-33.8895 93.5116-34.2437 92.9428-34.5979 92.2594-34.8759 91.4615-35.0777 90.6636-35.2795 89.8292-35.3804 88.9583-35.3804 87.9147-35.3804 86.9086-35.2216 85.94-34.9042 84.9713-34.5867 84.0751-34.1173 83.2513-33.4958 82.4274-32.8744 81.7609-32.1803 81.2518-31.4134 80.7427-30.6466 80.36-29.8995 80.1037-29.1721 79.8475-28.4447 79.5974-27.7847 79.3533-27.1919ZM113.196 0C113.817-6.75371 114.335-13.9406 114.75-21.5605 115.165-29.1805 115.401-36.2728 115.459-42.8374 118.097-42.7834 120.353-42.7563 122.227-42.7563 124.277-42.7563 126.427-42.7834 128.678-42.8374L128.227-35.9478C128.063-36.9191 128.318-37.7777 128.993-38.5235 129.667-39.2692 130.525-39.9988 131.567-40.7122 132.609-41.4257 133.72-41.9955 134.899-42.4217 136.078-42.8478 137.382-43.1858 138.812-43.4355 140.241-43.6852 141.739-43.8101 143.305-43.8101 145.77-43.8101 148.161-43.49 150.48-42.8497 152.799-42.2095 154.688-41.1748 156.147-39.7456 157.605-38.3164 158.566-36.7638 159.028-35.0878 159.49-33.4118 159.722-31.6721 159.722-29.8687 159.722-29.2797 159.677-28.1011 159.587-26.3326L158.743-8.47465C158.64-6.11477 158.574-3.28989 158.542 0 155.835-0.0540364 153.732-0.0810547 152.233-0.0810547 150.185-0.0810547 147.845-0.0540364 145.213 0 145.432-2.9623 145.704-7.35603 146.028-13.1812 146.353-19.0064 146.515-22.8532 146.515-24.7217 146.515-26.7164 146.213-28.294 145.609-29.4545 145.005-30.615 144.061-31.501 142.778-32.1125 141.495-32.724 140.095-33.0298 138.578-33.0298 137.085-33.0298 135.692-32.744 134.401-32.1724 133.11-31.6008 132.014-30.7928 131.112-29.7483 130.059-28.5616 129.146-26.9401 128.376-24.8838 127.984-23.4324 127.642-20.5609 127.349-16.2692 127.076-12.3938 126.852-6.9707 126.677 0 124.031-0.0540364 121.878-0.0810547 120.217-0.0810547 118.521-0.0810547 116.181-0.0540364 113.196 0ZM204.649-10.8208C204.291-8.62177 203.759-5.26285 203.05-0.744057 199.728-0.0365168 197.057 0.426487 195.036 0.644955 193.015 0.863422 190.964 0.972656 188.883 0.972656 185.243 0.972656 181.986 0.612026 179.113-0.109234 176.24-0.830494 173.695-2.17782 171.478-4.1512 169.261-6.12459 167.636-8.51971 166.603-11.3366 165.57-14.1534 165.053-17.1228 165.053-20.2447 165.053-23.6595 165.655-26.9804 166.857-30.2074 168.06-33.4344 169.751-36.0805 171.93-38.1457 174.109-40.2109 176.589-41.6713 179.369-42.5268 182.148-43.3823 185.036-43.8101 188.032-43.8101 190.847-43.8101 193.554-43.4506 196.152-42.7316 198.751-42.0127 200.945-40.8244 202.735-39.1668 204.524-37.5092 205.892-35.5327 206.837-33.2372 207.783-30.9417 208.256-28.3978 208.256-25.6057 208.256-24.3172 208.068-22.7394 207.694-20.8722L178.089-20.8323C178.072-20.5051 178.063-19.9779 178.063-19.2505 178.063-17.5348 178.352-15.9714 178.932-14.5601 179.512-13.1488 180.345-11.9614 181.432-10.9978 182.519-10.0342 183.836-9.31802 185.382-8.84921 186.928-8.3804 188.46-8.146 189.978-8.146 191.831-8.146 193.814-8.34272 195.925-8.73617 198.036-9.12963 200.944-9.8245 204.649-10.8208ZM178.468-27.1919 195.773-27.1533C195.773-27.8288 195.735-28.4606 195.658-29.0489 195.58-29.6372 195.412-30.2958 195.151-31.0246 194.891-31.7535 194.547-32.3837 194.12-32.9152 193.693-33.4467 193.195-33.8895 192.626-34.2437 192.057-34.5979 191.374-34.8759 190.576-35.0777 189.778-35.2795 188.944-35.3804 188.073-35.3804 187.029-35.3804 186.023-35.2216 185.055-34.9042 184.086-34.5867 183.19-34.1173 182.366-33.4958 181.542-32.8744 180.876-32.1803 180.366-31.4134 179.857-30.6466 179.475-29.8995 179.218-29.1721 178.962-28.4447 178.712-27.7847 178.468-27.1919ZM212.554 0 213.729-20.113 214.051-31.2592C214.105-33.5473 214.132-35.8532 214.132-38.1768 214.132-38.5651 214.105-40.1187 214.051-42.8374 216.714-42.7834 218.836-42.7563 220.415-42.7563 222.131-42.7563 224.239-42.7834 226.738-42.8374L226.536-37.123C226.57-38.3773 226.977-39.3867 227.755-40.1512 228.534-40.9157 229.411-41.5741 230.385-42.1263 231.359-42.6785 232.43-43.0971 233.599-43.3823 234.768-43.6675 235.967-43.8101 237.194-43.8101 238.328-43.8101 239.72-43.6137 241.369-43.2211 241.369-40.1833 241.49-36.516 241.734-32.2192 239.491-32.6515 237.762-32.8677 236.545-32.8677 235.097-32.8677 233.824-32.6522 232.728-32.2211 231.631-31.7901 230.639-31.1303 229.75-30.2416 228.861-29.353 228.042-28.0939 227.292-26.4644 226.984-25.7171 226.707-24.4304 226.461-22.6041 226.261-21.2595 226.091-18.9567 225.951-15.6955 225.812-12.4343 225.742-9.06673 225.742-5.59277 225.742-4.12999 225.783-2.26573 225.864 0 223.224-0.0540364 221.06-0.0810547 219.371-0.0810547 217.703-0.0810547 215.43-0.0540364 212.554 0ZM247.798-32.1787C248.177-34.7176 248.416-36.401 248.515-37.2291 248.615-38.0572 248.809-39.4166 249.098-41.3075 253.139-42.2586 256.595-42.9135 259.463-43.2721 262.332-43.6307 265.076-43.8101 267.697-43.8101 270.729-43.8101 273.549-43.4484 276.159-42.725 278.768-42.0016 280.84-40.8134 282.375-39.1602 283.911-37.507 284.678-35.1663 284.678-32.1382 284.678-30.6864 284.461-26.7725 284.027-20.3967 283.593-14.0208 283.333-7.22189 283.246 0 280.623-0.0540364 278.454-0.0810547 276.74-0.0810547 275.099-0.0810547 272.895-0.0540364 270.129 0 270.487-3.88598 270.774-7.95138 270.989-12.1962L271.523-21.439C271.329-20.837 270.949-20.3942 270.382-20.1107 269.814-19.8273 269.172-19.5636 268.454-19.3198 267.736-19.076 266.526-18.7177 264.822-18.2449 263.118-17.7721 261.776-17.3679 260.794-17.0322 259.812-16.6966 258.929-16.317 258.145-15.8934 257.362-15.4697 256.721-15.0159 256.225-14.5319 255.728-14.0479 255.375-13.5573 255.165-13.0603 254.955-12.5632 254.85-12.0058 254.85-11.3882 254.85-10.4257 255.125-9.6016 255.676-8.91601 256.227-8.23043 256.932-7.74832 257.791-7.4697 258.65-7.19107 259.723-7.05176 261.01-7.05176 261.859-7.05176 262.737-7.11561 263.644-7.24331 264.551-7.37102 266.158-7.71244 268.467-8.26758 267.873-6.01704 267.16-3.212 266.328 0.147545 264.071 0.529177 262.352 0.762104 261.172 0.846325 259.992 0.930546 258.898 0.972656 257.89 0.972656 254.355 0.972656 251.429 0.486328 249.111-0.486328 246.794-1.45898 245.077-3.01813 243.961-5.16375 242.845-7.30938 242.287-9.46524 242.287-11.6313 242.287-12.8995 242.503-14.14 242.937-15.3529 243.37-16.5658 244.006-17.6782 244.845-18.6901 245.684-19.702 246.757-20.6695 248.065-21.5925 249.372-22.5156 251.221-23.396 253.612-24.2338 256.004-25.0715 259.158-25.9147 263.074-26.7632 264.086-26.976 265.129-27.233 266.202-27.5342 267.276-27.8354 268.12-28.1235 268.733-28.3986 269.347-28.6736 269.856-29.0084 270.263-29.4029 270.669-29.7974 270.967-30.2076 271.158-30.6336 271.348-31.0596 271.443-31.48 271.443-31.895 271.443-32.7292 271.162-33.4444 270.598-34.0407 270.035-34.637 269.258-35.0634 268.268-35.3199 267.278-35.5764 266.16-35.7046 264.913-35.7046 260.111-35.7046 254.406-34.5293 247.798-32.1787ZM318.608-10.0913C318.283-8.04932 317.735-4.79953 316.962-0.341949 314.311 0.25794 312.321 0.627013 310.993 0.76527 309.665 0.903527 308.407 0.972656 307.219 0.972656 305.129 0.972656 303.251 0.773291 301.585 0.374561 299.919-0.0241686 298.517-0.754927 297.379-1.81771 296.242-2.8805 295.476-4.1036 295.083-5.48702 294.69-6.87044 294.494-8.29713 294.494-9.76709 294.494-10.1352 294.508-10.6268 294.536-11.2419 294.564-11.857 294.671-13.7692 294.858-16.9784L295.788-32.9893 289.955-32.9893C290.091-35.2149 290.22-38.3625 290.343-42.4321L296.499-42.4321C296.612-43.5318 296.757-46.1446 296.934-50.2704L302.35-51.3228C303.208-51.4841 305.48-51.9383 309.165-52.6855 308.962-48.4606 308.849-45.0428 308.826-42.4321L319.134-42.4321C318.945-38.3832 318.851-35.2356 318.851-32.9893L308.463-32.9893C307.93-22.6717 307.663-16.5791 307.663-14.7114 307.663-13.119 307.816-11.938 308.121-11.1684 308.427-10.3989 308.905-9.85131 309.557-9.52582 310.208-9.20034 310.928-9.0376 311.717-9.0376 312.366-9.0376 313.052-9.09005 313.772-9.19496 314.493-9.29986 316.105-9.59865 318.608-10.0913ZM324.815-48.2681C324.923-51.6128 324.977-54.0175 324.977-55.4819L324.977-57.5894C327.591-57.5353 329.86-57.5083 331.785-57.5083 334.159-57.5083 336.401-57.5353 338.513-57.5894 338.421-56.2899 338.361-55.2037 338.334-54.3307L338.105-48.2681C335.497-48.3221 333.336-48.3491 331.623-48.3491 329.903-48.3491 327.633-48.3221 324.815-48.2681ZM322.594 0C323.01-4.67964 323.302-8.42293 323.471-11.2299 323.74-15.4519 323.976-20.3777 324.181-26.0072 324.386-31.6367 324.534-37.2467 324.625-42.8374 327.377-42.7834 329.617-42.7563 331.344-42.7563 332.959-42.7563 335.203-42.7834 338.076-42.8374 337.7-37.5292 337.402-32.7466 337.18-28.4898 336.959-24.2329 336.799-19.471 336.699-14.2039 336.6-8.93681 336.55-4.20218 336.55 0 333.501-0.0540364 331.243-0.0810547 329.775-0.0810547 328.377-0.0810547 325.984-0.0540364 322.594 0ZM355.647 0C353.728-6.12005 348.86-20.3992 341.042-42.8374 343.59-42.7834 345.916-42.7563 348.019-42.7563 350.141-42.7563 352.231-42.7834 354.289-42.8374L363.223-11.8903 363.628-14.5848 372.814-38.0596C373.214-38.9681 373.816-40.5607 374.623-42.8374 376.888-42.7834 379.047-42.7563 381.099-42.7563 383.183-42.7563 385.461-42.7834 387.932-42.8374L381.13-27.1147 371.775-5.97272 369.354 0C366.519-0.0540364 364.287-0.0810547 362.658-0.0810547 360.937-0.0810547 358.6-0.0540364 355.647 0ZM427.513-10.8208C427.156-8.62177 426.623-5.26285 425.915-0.744057 422.593-0.0365168 419.921 0.426487 417.901 0.644955 415.88 0.863422 413.829 0.972656 411.748 0.972656 408.107 0.972656 404.85 0.612026 401.977-0.109234 399.104-0.830494 396.559-2.17782 394.342-4.1512 392.126-6.12459 390.501-8.51971 389.467-11.3366 388.434-14.1534 387.918-17.1228 387.918-20.2447 387.918-23.6595 388.519-26.9804 389.722-30.2074 390.924-33.4344 392.615-36.0805 394.795-38.1457 396.974-40.2109 399.454-41.6713 402.233-42.5268 405.013-43.3823 407.901-43.8101 410.897-43.8101 413.712-43.8101 416.419-43.4506 419.017-42.7316 421.615-42.0127 423.809-40.8244 425.599-39.1668 427.389-37.5092 428.757-35.5327 429.702-33.2372 430.647-30.9417 431.12-28.3978 431.12-25.6057 431.12-24.3172 430.933-22.7394 430.559-20.8722L400.954-20.8323C400.936-20.5051 400.927-19.9779 400.927-19.2505 400.927-17.5348 401.217-15.9714 401.797-14.5601 402.376-13.1488 403.21-11.9614 404.297-10.9978 405.384-10.0342 406.7-9.31802 408.247-8.84921 409.793-8.3804 411.325-8.146 412.842-8.146 414.696-8.146 416.678-8.34272 418.789-8.73617 420.9-9.12963 423.808-9.8245 427.513-10.8208ZM401.333-27.1919 418.638-27.1533C418.638-27.8288 418.599-28.4606 418.522-29.0489 418.445-29.6372 418.276-30.2958 418.016-31.0246 417.755-31.7535 417.412-32.3837 416.985-32.9152 416.558-33.4467 416.06-33.8895 415.491-34.2437 414.922-34.5979 414.239-34.8759 413.441-35.0777 412.643-35.2795 411.808-35.3804 410.938-35.3804 409.894-35.3804 408.888-35.2216 407.919-34.9042 406.951-34.5867 406.054-34.1173 405.23-33.4958 404.407-32.8744 403.74-32.1803 403.231-31.4134 402.722-30.6466 402.339-29.8995 402.083-29.1721 401.827-28.4447 401.576-27.7847 401.333-27.1919ZM455.427-1.3222C455.193-5.77008 454.899-9.61173 454.544-12.8472 460.499-10.4425 465.578-9.24023 469.782-9.24023 471.422-9.24023 472.929-9.4815 474.302-9.96403 475.676-10.4466 476.671-11.1007 477.287-11.9264 477.904-12.7522 478.212-13.667 478.212-14.6709 478.212-15.4603 478.067-16.1626 477.776-16.7777 477.309-17.6819 476.45-18.6951 475.199-19.8172 473.71-21.2496 470.926-23.8626 466.847-27.6561 465.217-28.7799 464.149-29.666 463.641-30.3145 461.684-32.0212 460.248-33.5247 459.334-34.8247 458.42-36.1247 457.764-37.4122 457.368-38.6871 456.971-39.9621 456.773-41.3455 456.773-42.8374 456.773-45.5316 457.526-48.0616 459.031-50.4274 460.536-52.7932 462.764-54.6323 465.714-55.9448 468.663-57.2573 472.343-57.9136 476.753-57.9136 480.636-57.9136 485.256-57.3901 490.611-56.3431 490.763-53.1799 491.047-49.475 491.464-45.2285 486.576-46.8496 482.409-47.6602 478.964-47.6602 476.519-47.6602 474.547-47.125 473.046-46.0546 471.546-44.9842 470.795-43.7902 470.795-42.4727 470.795-42.0957 470.848-41.6969 470.952-41.2765 471.057-40.856 471.209-40.4553 471.41-40.0743 471.611-39.6933 471.995-39.1664 472.56-38.4937 473.126-37.821 473.983-37.0098 475.132-36.0602 476.281-35.1105 477.281-34.3279 478.133-33.7124L483.197-29.1157C484.432-28.089 485.55-27.0747 486.55-26.0727 487.55-25.0707 488.422-24.0922 489.165-23.1373 489.908-22.1824 490.497-21.2531 490.934-20.3495 491.371-19.4458 491.697-18.5267 491.912-17.592 492.127-16.6574 492.234-15.6837 492.234-14.6709 492.234-12.2836 491.674-10.019 490.553-7.87718 489.432-5.73536 487.835-3.98318 485.763-2.62066 483.691-1.25814 481.44-0.318625 479.011 0.197887 476.581 0.7144 474.019 0.972656 471.322 0.972656 469.517 0.972656 467.464 0.823739 465.162 0.525906 462.86 0.228072 459.615-0.387965 455.427-1.3222ZM525.43-10.0913C525.106-8.04932 524.558-4.79953 523.785-0.341949 521.134 0.25794 519.144 0.627013 517.816 0.76527 516.488 0.903527 515.23 0.972656 514.042 0.972656 511.952 0.972656 510.074 0.773291 508.408 0.374561 506.742-0.0241686 505.34-0.754927 504.202-1.81771 503.065-2.8805 502.299-4.1036 501.906-5.48702 501.513-6.87044 501.317-8.29713 501.317-9.76709 501.317-10.1352 501.331-10.6268 501.359-11.2419 501.387-11.857 501.494-13.7692 501.681-16.9784L502.61-32.9893 496.778-32.9893C496.914-35.2149 497.043-38.3625 497.166-42.4321L503.322-42.4321C503.435-43.5318 503.58-46.1446 503.757-50.2704L509.173-51.3228C510.031-51.4841 512.303-51.9383 515.988-52.6855 515.785-48.4606 515.672-45.0428 515.649-42.4321L525.957-42.4321C525.768-38.3832 525.674-35.2356 525.674-32.9893L515.286-32.9893C514.753-22.6717 514.486-16.5791 514.486-14.7114 514.486-13.119 514.639-11.938 514.944-11.1684 515.25-10.3989 515.728-9.85131 516.38-9.52582 517.031-9.20034 517.751-9.0376 518.54-9.0376 519.189-9.0376 519.875-9.09005 520.595-9.19496 521.316-9.29986 522.928-9.59865 525.43-10.0913ZM529.377 0 530.551-20.113 530.874-31.2592C530.928-33.5473 530.955-35.8532 530.955-38.1768 530.955-38.5651 530.928-40.1187 530.874-42.8374 533.537-42.7834 535.658-42.7563 537.238-42.7563 538.954-42.7563 541.062-42.7834 543.561-42.8374L543.359-37.123C543.393-38.3773 543.799-39.3867 544.578-40.1512 545.357-40.9157 546.234-41.5741 547.208-42.1263 548.181-42.6785 549.253-43.0971 550.422-43.3823 551.591-43.6675 552.79-43.8101 554.017-43.8101 555.151-43.8101 556.543-43.6137 558.192-43.2211 558.192-40.1833 558.313-36.516 558.556-32.2192 556.314-32.6515 554.585-32.8677 553.368-32.8677 551.919-32.8677 550.647-32.6522 549.551-32.2211 548.454-31.7901 547.462-31.1303 546.573-30.2416 545.684-29.353 544.865-28.0939 544.115-26.4644 543.807-25.7171 543.53-24.4304 543.284-22.6041 543.083-21.2595 542.914-18.9567 542.774-15.6955 542.635-12.4343 542.565-9.06673 542.565-5.59277 542.565-4.12999 542.606-2.26573 542.687 0 540.047-0.0540364 537.883-0.0810547 536.194-0.0810547 534.525-0.0810547 532.253-0.0540364 529.377 0ZM604.966 0C602.019-0.0540364 599.919-0.0810547 598.667-0.0810547 597.081-0.0810547 595-0.0540364 592.423 0L592.496-6.72754C592.752-5.83298 592.579-5.0198 591.977-4.28798 591.375-3.55617 590.579-2.83364 589.589-2.1204 588.599-1.40716 587.545-0.847697 586.426-0.442001 585.307-0.0363058 584.02 0.300894 582.564 0.569599 581.108 0.838304 579.57 0.972656 577.951 0.972656 574.809 0.972656 572.061 0.511447 569.706-0.410973 567.35-1.33339 565.468-2.75343 564.06-4.67109 562.651-6.58875 561.946-9.3006 561.946-12.8066L561.946-13.7084 562.607-24.2436 563.219-37.9374C563.246-39.0156 563.259-40.6489 563.259-42.8374 565.964-42.7834 568.244-42.7563 570.1-42.7563 571.963-42.7563 574.108-42.7834 576.536-42.8374L575.174-23.4552C575.092-22.0321 575.033-20.8893 574.998-20.0268 574.962-19.1644 574.944-18.4193 574.944-17.7915 574.944-15.9479 575.202-14.4561 575.718-13.3161 576.233-12.176 577.132-11.3063 578.413-10.7068 579.694-10.1073 581.102-9.80762 582.636-9.80762 584.11-9.80762 585.487-10.0795 586.766-10.6232 587.932-11.1214 588.929-11.8161 589.758-12.7075 590.587-13.5989 591.367-14.9964 592.097-16.8999 592.382-17.6746 592.647-19.1226 592.892-21.2439 593.075-22.6835 593.247-25.2114 593.41-28.8276 593.631-33.1493 593.789-37.8192 593.883-42.8374 596.671-42.7834 598.979-42.7563 600.806-42.7563 602.698-42.7563 604.78-42.7834 607.053-42.8374 606.718-38.3448 606.376-33.2124 606.027-27.4402 605.679-21.668 605.437-16.8978 605.302-13.1296 605.168-9.36139 605.056-4.98486 604.966 0ZM647.025-10.9829C646.883-9.27907 646.678-7.73671 646.412-6.35583 646.145-4.97494 645.833-3.02646 645.476-0.510391 641.193 0.478307 637.13 0.972656 633.286 0.972656 631.03 0.972656 628.858 0.763687 626.768 0.345749 624.679-0.0721893 622.717-0.828805 620.881-1.9241 619.046-3.01939 617.438-4.45452 616.058-6.2295 614.677-8.00447 613.644-10.1453 612.958-12.6521 612.271-15.1589 611.928-17.7366 611.928-20.3853 611.928-23.8942 612.492-27.2622 613.618-30.4892 614.745-33.7162 616.413-36.3704 618.622-38.4519 620.83-40.5334 623.278-41.9467 625.964-42.6921 628.65-43.4374 631.604-43.8101 634.826-43.8101 636.558-43.8101 638.396-43.7043 640.341-43.4928 642.285-43.2813 644.725-42.8165 647.66-42.0984L648.322-31.7734C643.633-33.1514 639.843-33.8403 636.952-33.8403 635.225-33.8403 633.606-33.553 632.097-32.9785 630.588-32.4039 629.286-31.4921 628.19-30.2429 627.095-28.9937 626.312-27.5441 625.843-25.8941 625.375-24.2441 625.14-22.5294 625.14-20.75 625.14-18.2605 625.506-16.1515 626.239-14.423 626.971-12.6945 628.23-11.358 630.016-10.4136 631.802-9.46926 633.871-8.99707 636.223-8.99707 637.382-8.99707 638.813-9.14894 640.514-9.45269 642.215-9.75643 644.386-10.2665 647.025-10.9829ZM680.118-10.0913C679.794-8.04932 679.245-4.79953 678.472-0.341949 675.821 0.25794 673.831 0.627013 672.503 0.76527 671.175 0.903527 669.917 0.972656 668.73 0.972656 666.639 0.972656 664.761 0.773291 663.095 0.374561 661.429-0.0241686 660.028-0.754927 658.89-1.81771 657.752-2.8805 656.987-4.1036 656.594-5.48702 656.201-6.87044 656.004-8.29713 656.004-9.76709 656.004-10.1352 656.018-10.6268 656.046-11.2419 656.074-11.857 656.182-13.7692 656.368-16.9784L657.298-32.9893 651.465-32.9893C651.601-35.2149 651.731-38.3625 651.853-42.4321L658.009-42.4321C658.123-43.5318 658.268-46.1446 658.444-50.2704L663.86-51.3228C664.719-51.4841 666.99-51.9383 670.675-52.6855 670.472-48.4606 670.359-45.0428 670.336-42.4321L680.645-42.4321C680.456-38.3832 680.361-35.2356 680.361-32.9893L669.973-32.9893C669.44-22.6717 669.174-16.5791 669.174-14.7114 669.174-13.119 669.326-11.938 669.632-11.1684 669.937-10.3989 670.416-9.85131 671.067-9.52582 671.718-9.20034 672.438-9.0376 673.227-9.0376 673.877-9.0376 674.562-9.09005 675.283-9.19496 676.004-9.29986 677.615-9.59865 680.118-10.0913ZM727.57 0C724.623-0.0540364 722.524-0.0810547 721.272-0.0810547 719.685-0.0810547 717.604-0.0540364 715.027 0L715.101-6.72754C715.356-5.83298 715.183-5.0198 714.581-4.28798 713.979-3.55617 713.183-2.83364 712.193-2.1204 711.203-1.40716 710.149-0.847697 709.03-0.442001 707.912-0.0363058 706.624 0.300894 705.168 0.569599 703.712 0.838304 702.174 0.972656 700.555 0.972656 697.413 0.972656 694.665 0.511447 692.31-0.410973 689.954-1.33339 688.072-2.75343 686.664-4.67109 685.255-6.58875 684.551-9.3006 684.551-12.8066L684.551-13.7084 685.212-24.2436 685.823-37.9374C685.85-39.0156 685.863-40.6489 685.863-42.8374 688.568-42.7834 690.848-42.7563 692.704-42.7563 694.567-42.7563 696.712-42.7834 699.14-42.8374L697.778-23.4552C697.696-22.0321 697.638-20.8893 697.602-20.0268 697.566-19.1644 697.548-18.4193 697.548-17.7915 697.548-15.9479 697.806-14.4561 698.322-13.3161 698.838-12.176 699.736-11.3063 701.017-10.7068 702.299-10.1073 703.706-9.80762 705.24-9.80762 706.714-9.80762 708.091-10.0795 709.37-10.6232 710.536-11.1214 711.533-11.8161 712.362-12.7075 713.191-13.5989 713.971-14.9964 714.701-16.8999 714.986-17.6746 715.251-19.1226 715.496-21.2439 715.679-22.6835 715.852-25.2114 716.014-28.8276 716.235-33.1493 716.393-37.8192 716.487-42.8374 719.276-42.7834 721.583-42.7563 723.41-42.7563 725.302-42.7563 727.384-42.7834 729.658-42.8374 729.322-38.3448 728.98-33.2124 728.632-27.4402 728.283-21.668 728.041-16.8978 727.907-13.1296 727.772-9.36139 727.66-4.98486 727.57 0ZM735.627 0 736.801-20.113 737.124-31.2592C737.178-33.5473 737.205-35.8532 737.205-38.1768 737.205-38.5651 737.178-40.1187 737.124-42.8374 739.787-42.7834 741.908-42.7563 743.488-42.7563 745.204-42.7563 747.312-42.7834 749.811-42.8374L749.609-37.123C749.643-38.3773 750.049-39.3867 750.828-40.1512 751.607-40.9157 752.484-41.5741 753.458-42.1263 754.431-42.6785 755.503-43.0971 756.672-43.3823 757.841-43.6675 759.04-43.8101 760.267-43.8101 761.401-43.8101 762.793-43.6137 764.442-43.2211 764.442-40.1833 764.563-36.516 764.806-32.2192 762.564-32.6515 760.835-32.8677 759.618-32.8677 758.169-32.8677 756.897-32.6522 755.801-32.2211 754.704-31.7901 753.712-31.1303 752.823-30.2416 751.934-29.353 751.115-28.0939 750.365-26.4644 750.057-25.7171 749.78-24.4304 749.534-22.6041 749.333-21.2595 749.164-18.9567 749.024-15.6955 748.885-12.4343 748.815-9.06673 748.815-5.59277 748.815-4.12999 748.856-2.26573 748.937 0 746.297-0.0540364 744.133-0.0810547 742.444-0.0810547 740.775-0.0810547 738.503-0.0540364 735.627 0ZM770.871-32.1787C771.249-34.7176 771.488-36.401 771.588-37.2291 771.688-38.0572 771.882-39.4166 772.171-41.3075 776.212-42.2586 779.668-42.9135 782.536-43.2721 785.405-43.6307 788.149-43.8101 790.77-43.8101 793.802-43.8101 796.622-43.4484 799.232-42.725 801.841-42.0016 803.913-40.8134 805.448-39.1602 806.983-37.507 807.751-35.1663 807.751-32.1382 807.751-30.6864 807.534-26.7725 807.1-20.3967 806.666-14.0208 806.406-7.22189 806.319 0 803.696-0.0540364 801.527-0.0810547 799.813-0.0810547 798.172-0.0810547 795.968-0.0540364 793.202 0 793.56-3.88598 793.847-7.95138 794.062-12.1962L794.596-21.439C794.402-20.837 794.022-20.3942 793.454-20.1107 792.887-19.8273 792.245-19.5636 791.527-19.3198 790.809-19.076 789.599-18.7177 787.895-18.2449 786.191-17.7721 784.849-17.3679 783.867-17.0322 782.885-16.6966 782.002-16.317 781.218-15.8934 780.434-15.4697 779.794-15.0159 779.298-14.5319 778.801-14.0479 778.448-13.5573 778.238-13.0603 778.028-12.5632 777.923-12.0058 777.923-11.3882 777.923-10.4257 778.198-9.6016 778.749-8.91601 779.3-8.23043 780.005-7.74832 780.864-7.4697 781.723-7.19107 782.796-7.05176 784.083-7.05176 784.932-7.05176 785.809-7.11561 786.716-7.24331 787.623-7.37102 789.231-7.71244 791.54-8.26758 790.946-6.01704 790.233-3.212 789.4 0.147545 787.144 0.529177 785.425 0.762104 784.245 0.846325 783.065 0.930546 781.971 0.972656 780.963 0.972656 777.428 0.972656 774.502 0.486328 772.184-0.486328 769.867-1.45898 768.15-3.01813 767.034-5.16375 765.918-7.30938 765.359-9.46524 765.359-11.6313 765.359-12.8995 765.576-14.14 766.01-15.3529 766.443-16.5658 767.079-17.6782 767.918-18.6901 768.757-19.702 769.83-20.6695 771.138-21.5925 772.445-22.5156 774.294-23.396 776.685-24.2338 779.077-25.0715 782.23-25.9147 786.147-26.7632 787.159-26.976 788.202-27.233 789.275-27.5342 790.349-27.8354 791.193-28.1235 791.806-28.3986 792.419-28.6736 792.929-29.0084 793.335-29.4029 793.741-29.7974 794.04-30.2076 794.23-30.6336 794.421-31.0596 794.516-31.48 794.516-31.895 794.516-32.7292 794.235-33.4444 793.671-34.0407 793.107-34.637 792.331-35.0634 791.341-35.3199 790.351-35.5764 789.233-35.7046 787.986-35.7046 783.184-35.7046 777.479-34.5293 770.871-32.1787ZM814.77 0C815.176-5.17441 815.667-13.6779 816.245-25.5104 816.822-37.3429 817.182-47.8197 817.324-56.9409 820.228-56.8869 822.496-56.8599 824.126-56.8599 826.064-56.8599 828.295-56.8869 830.819-56.9409L829.834-41.2163 828.425-8.29354 828.247 0C825.465-0.0540364 823.312-0.0810547 821.788-0.0810547 821.274-0.0810547 818.935-0.0540364 814.77 0ZM857.896 0 858.989-14.9995 859.795-32.596 860.318-50.1108C860.345-50.8665 860.359-53.1432 860.359-56.9409 863.43-56.8869 866.524-56.8599 869.641-56.8599 871.933-56.8599 874.694-56.9004 877.923-56.9814 881.152-57.0625 883.783-57.103 885.815-57.103 889.013-57.103 892.01-56.9084 894.805-56.5192 897.599-56.1299 900.059-55.3902 902.183-54.3 904.308-53.2098 906.14-51.8524 907.681-50.2279 909.221-48.6035 910.48-46.8069 911.458-44.8381 912.436-42.8694 913.183-40.6794 913.698-38.2683 914.214-35.8571 914.472-33.422 914.472-30.9629 914.472-26.2372 913.645-21.7142 911.992-17.3938 910.339-13.0734 907.865-9.49617 904.57-6.662 901.275-3.82783 897.64-2.00895 893.664-1.20537 889.687-0.401791 885.204 0 880.214 0L866.441-0.0810547C865.58-0.0810547 862.732-0.0540364 857.896 0ZM871.991-10.2002C873.492-10.1276 875.398-10.0913 877.707-10.0913 880.171-10.0913 882.415-10.2088 884.439-10.4437 886.462-10.6786 888.197-11.0477 889.643-11.5509 891.088-12.0541 892.536-12.9338 893.985-14.19 895.433-15.4461 896.622-16.9063 897.552-18.5707 898.481-20.2351 899.196-22.1089 899.697-24.1923 900.199-26.2756 900.449-28.3839 900.449-30.5171 900.449-34.4284 899.797-37.6186 898.492-40.0876 897.187-42.5566 895.467-44.3346 893.331-45.4216 891.196-46.5087 887.854-47.0522 883.306-47.0522 880.262-47.0522 877.031-47.0056 873.615-46.9123ZM958.034-10.8208C957.677-8.62177 957.144-5.26285 956.436-0.744057 953.114-0.0365168 950.442 0.426487 948.421 0.644955 946.401 0.863422 944.35 0.972656 942.269 0.972656 938.628 0.972656 935.371 0.612026 932.498-0.109234 929.625-0.830494 927.08-2.17782 924.863-4.1512 922.646-6.12459 921.021-8.51971 919.988-11.3366 918.955-14.1534 918.439-17.1228 918.439-20.2447 918.439-23.6595 919.04-26.9804 920.243-30.2074 921.445-33.4344 923.136-36.0805 925.315-38.1457 927.495-40.2109 929.974-41.6713 932.754-42.5268 935.534-43.3823 938.422-43.8101 941.418-43.8101 944.233-43.8101 946.939-43.4506 949.538-42.7316 952.136-42.0127 954.33-40.8244 956.12-39.1668 957.91-37.5092 959.277-35.5327 960.223-33.2372 961.168-30.9417 961.641-28.3978 961.641-25.6057 961.641-24.3172 961.454-22.7394 961.08-20.8722L931.475-20.8323C931.457-20.5051 931.448-19.9779 931.448-19.2505 931.448-17.5348 931.738-15.9714 932.318-14.5601 932.897-13.1488 933.73-11.9614 934.818-10.9978 935.905-10.0342 937.221-9.31802 938.767-8.84921 940.313-8.3804 941.845-8.146 943.363-8.146 945.217-8.146 947.199-8.34272 949.31-8.73617 951.421-9.12963 954.329-9.8245 958.034-10.8208ZM931.853-27.1919 949.159-27.1533C949.158-27.8288 949.12-28.4606 949.043-29.0489 948.966-29.6372 948.797-30.2958 948.537-31.0246 948.276-31.7535 947.932-32.3837 947.505-32.9152 947.078-33.4467 946.58-33.8895 946.012-34.2437 945.443-34.5979 944.759-34.8759 943.961-35.0777 943.164-35.2795 942.329-35.3804 941.458-35.3804 940.415-35.3804 939.409-35.2216 938.44-34.9042 937.471-34.5867 936.575-34.1173 935.751-33.4958 934.927-32.8744 934.261-32.1803 933.752-31.4134 933.243-30.6466 932.86-29.8995 932.604-29.1721 932.347-28.4447 932.097-27.7847 931.853-27.1919ZM964.943-0.917564 963.994-11.3071C967.367-10.1956 969.938-9.43812 971.708-9.03475 973.478-8.63137 975.108-8.42969 976.598-8.42969 978.058-8.42969 979.247-8.58852 980.165-8.9062 981.083-9.22388 981.751-9.67495 982.17-10.2594 982.589-10.8439 982.799-11.4363 982.799-12.0366 982.799-12.2984 982.771-12.5505 982.716-12.793 982.661-13.0356 982.559-13.2947 982.409-13.5703 982.26-13.846 982.085-14.1078 981.884-14.3559 981.683-14.6039 981.405-14.8881 981.049-15.2085 980.693-15.5289 980.144-15.9673 979.402-16.5238L977.145-18.3209C975.074-19.9407 973.463-21.2418 972.312-22.2242 971.161-23.2065 970.181-24.225 969.372-25.2796 968.563-26.3341 967.951-27.4418 967.535-28.6025 967.12-29.7632 966.912-30.9688 966.912-32.2192 966.912-34.3617 967.559-36.3936 968.855-38.3148 970.15-40.236 972.011-41.6322 974.44-42.5034 976.868-43.3745 979.681-43.8101 982.88-43.8101 986.423-43.8101 990.769-43.3434 995.917-42.41L996.497-32.4624C992.667-33.7323 989.371-34.3672 986.608-34.3672 985.119-34.3672 983.85-34.2286 982.802-33.9515 981.753-33.6743 981.031-33.2912 980.636-32.8021 980.24-32.3131 980.043-31.7675 980.043-31.1655 980.043-30.786 980.108-30.4169 980.238-30.0583 980.369-29.6997 980.612-29.3064 980.969-28.8786 981.325-28.4507 981.74-28.0432 982.211-27.6561 982.683-27.269 983.757-26.4403 985.433-25.17 987.108-23.8997 988.604-22.7265 989.921-21.6505 991.237-20.5744 992.323-19.4882 993.177-18.3918 994.032-17.2955 994.691-16.1106 995.154-14.8371 995.617-13.5637 995.848-12.2789 995.848-10.9829 995.848-8.79612 995.176-6.76701 993.831-4.89558 992.486-3.02414 990.495-1.57824 987.859-0.557884 985.223 0.462476 982.294 0.972656 979.07 0.972656 977.381 0.972656 975.36 0.842631 973.006 0.582581 970.652 0.32253 967.964-0.177518 964.943-0.917564ZM1004.29-48.2681C1004.4-51.6128 1004.46-54.0175 1004.46-55.4819L1004.46-57.5894C1007.07-57.5353 1009.34-57.5083 1011.26-57.5083 1013.64-57.5083 1015.88-57.5353 1017.99-57.5894 1017.9-56.2899 1017.84-55.2037 1017.81-54.3307L1017.58-48.2681C1014.98-48.3221 1012.82-48.3491 1011.1-48.3491 1009.38-48.3491 1007.11-48.3221 1004.29-48.2681ZM1002.07 0C1002.49-4.67964 1002.78-8.42293 1002.95-11.2299 1003.22-15.4519 1003.46-20.3777 1003.66-26.0072 1003.87-31.6367 1004.01-37.2467 1004.1-42.8374 1006.86-42.7834 1009.1-42.7563 1010.82-42.7563 1012.44-42.7563 1014.68-42.7834 1017.55-42.8374 1017.18-37.5292 1016.88-32.7466 1016.66-28.4898 1016.44-24.2329 1016.28-19.471 1016.18-14.2039 1016.08-8.93681 1016.03-4.20218 1016.03 0 1012.98-0.0540364 1010.72-0.0810547 1009.25-0.0810547 1007.86-0.0810547 1005.46-0.0540364 1002.07 0ZM1026.76 6.93018C1033.45 8.92952 1038.99 9.9292 1043.38 9.9292 1045.02 9.9292 1046.55 9.73374 1047.97 9.34282 1049.38 8.9519 1050.55 8.39707 1051.48 7.67835 1052.41 6.95962 1053.14 5.96649 1053.67 4.69896 1054.19 3.43142 1054.55 1.92019 1054.74 0.165276 1054.92-1.58964 1055.07-3.98181 1055.17-7.01123 1055.07-5.74306 1054.58-4.69537 1053.71-3.86814 1052.85-3.04092 1051.79-2.29064 1050.54-1.61729 1049.29-0.943949 1047.86-0.404746 1046.24 0.00031662 1044.62 0.405379 1042.9 0.60791 1041.07 0.60791 1038.58 0.60791 1036.22 0.220367 1033.99-0.554718 1031.77-1.3298 1029.78-2.55597 1028.03-4.23321 1026.28-5.91045 1024.96-8.007 1024.06-10.5229 1023.16-13.0387 1022.71-15.6642 1022.71-18.3994 1022.71-22.258 1023.44-25.9222 1024.91-29.3921 1026.38-32.8621 1028.53-35.7136 1031.37-37.9466 1034.2-40.1796 1037.23-41.7151 1040.46-42.5531 1043.68-43.3911 1047.22-43.8101 1051.08-43.8101 1053.15-43.8101 1055.57-43.6773 1058.34-43.4117 1061.1-43.1462 1064.9-42.5822 1069.72-41.7197L1068.77-28.1329 1067.92-12.0708 1067.6 2.47597C1067.51 4.16334 1067.3 5.79435 1066.97 7.36901 1066.64 8.94367 1066.09 10.3871 1065.34 11.6994 1064.59 13.0117 1063.65 14.1648 1062.51 15.1588 1061.38 16.1528 1060.09 16.9558 1058.65 17.568 1057.21 18.1801 1055.45 18.6811 1053.38 19.071 1051.3 19.4608 1049.09 19.6558 1046.74 19.6558 1044.22 19.6558 1041.38 19.4921 1038.22 19.1647 1035.06 18.8373 1031.43 18.1799 1027.33 17.1925ZM1056.35-33.2615C1054.47-33.6474 1052.57-33.8403 1050.64-33.8403 1047.28-33.8403 1044.52-33.237 1042.36-32.0302 1040.21-30.8235 1038.54-29.0542 1037.36-26.7224 1036.19-24.3906 1035.6-21.9057 1035.6-19.2676 1035.6-17.3261 1035.95-15.553 1036.64-13.9484 1037.34-12.3437 1038.41-11.1376 1039.87-10.33 1041.32-9.52245 1042.95-9.11865 1044.76-9.11865 1046.04-9.11865 1047.24-9.31696 1048.34-9.71358 1049.44-10.1102 1050.45-10.7253 1051.35-11.5588 1052.26-12.3924 1053.07-13.432 1053.76-14.6775 1054.46-15.9231 1054.96-17.3446 1055.26-18.9421 1055.56-20.5396 1055.79-22.59 1055.95-25.0934 1056.11-27.5968 1056.25-30.3195 1056.35-33.2615ZM1075.7 0C1076.32-6.75371 1076.83-13.9406 1077.25-21.5605 1077.66-29.1805 1077.9-36.2728 1077.96-42.8374 1080.6-42.7834 1082.85-42.7563 1084.73-42.7563 1086.78-42.7563 1088.93-42.7834 1091.18-42.8374L1090.73-35.9478C1090.56-36.9191 1090.82-37.7777 1091.49-38.5235 1092.17-39.2692 1093.03-39.9988 1094.07-40.7122 1095.11-41.4257 1096.22-41.9955 1097.4-42.4217 1098.58-42.8478 1099.88-43.1858 1101.31-43.4355 1102.74-43.6852 1104.24-43.8101 1105.81-43.8101 1108.27-43.8101 1110.66-43.49 1112.98-42.8497 1115.3-42.2095 1117.19-41.1748 1118.65-39.7456 1120.11-38.3164 1121.07-36.7638 1121.53-35.0878 1121.99-33.4118 1122.22-31.6721 1122.22-29.8687 1122.22-29.2797 1122.18-28.1011 1122.09-26.3326L1121.24-8.47465C1121.14-6.11477 1121.07-3.28989 1121.04 0 1118.33-0.0540364 1116.23-0.0810547 1114.73-0.0810547 1112.69-0.0810547 1110.35-0.0540364 1107.71 0 1107.93-2.9623 1108.2-7.35603 1108.53-13.1812 1108.85-19.0064 1109.01-22.8532 1109.01-24.7217 1109.01-26.7164 1108.71-28.294 1108.11-29.4545 1107.5-30.615 1106.56-31.501 1105.28-32.1125 1103.99-32.724 1102.59-33.0298 1101.08-33.0298 1099.58-33.0298 1098.19-32.744 1096.9-32.1724 1095.61-31.6008 1094.51-30.7928 1093.61-29.7483 1092.56-28.5616 1091.65-26.9401 1090.88-24.8838 1090.48-23.4324 1090.14-20.5609 1089.85-16.2692 1089.58-12.3938 1089.35-6.9707 1089.18 0 1086.53-0.0540364 1084.38-0.0810547 1082.72-0.0810547 1081.02-0.0810547 1078.68-0.0540364 1075.7 0ZM1150.12 0C1150.77-9.89669 1151.3-19.7181 1151.7-29.4643 1152.1-39.2105 1152.3-46.6495 1152.3-51.7813L1152.26-56.9377 1159.85-56.8535C1160.79-56.8577 1163.14-56.8869 1166.9-56.9409 1165.79-42.1413 1165.08-23.161 1164.78 0L1157.99-0.0810547C1156.99-0.0810547 1154.37-0.0540364 1150.12 0ZM1173.09 0C1173.71-6.75371 1174.23-13.9406 1174.65-21.5605 1175.06-29.1805 1175.3-36.2728 1175.36-42.8374 1177.99-42.7834 1180.25-42.7563 1182.12-42.7563 1184.17-42.7563 1186.32-42.7834 1188.57-42.8374L1188.12-35.9478C1187.96-36.9191 1188.21-37.7777 1188.89-38.5235 1189.56-39.2692 1190.42-39.9988 1191.46-40.7122 1192.5-41.4257 1193.62-41.9955 1194.79-42.4217 1195.97-42.8478 1197.28-43.1858 1198.71-43.4355 1200.14-43.6852 1201.63-43.8101 1203.2-43.8101 1205.67-43.8101 1208.06-43.49 1210.38-42.8497 1212.69-42.2095 1214.58-41.1748 1216.04-39.7456 1217.5-38.3164 1218.46-36.7638 1218.92-35.0878 1219.39-33.4118 1219.62-31.6721 1219.62-29.8687 1219.62-29.2797 1219.57-28.1011 1219.48-26.3326L1218.64-8.47465C1218.54-6.11477 1218.47-3.28989 1218.44 0 1215.73-0.0540364 1213.63-0.0810547 1212.13-0.0810547 1210.08-0.0810547 1207.74-0.0540364 1205.11 0 1205.33-2.9623 1205.6-7.35603 1205.92-13.1812 1206.25-19.0064 1206.41-22.8532 1206.41-24.7217 1206.41-26.7164 1206.11-28.294 1205.5-29.4545 1204.9-30.615 1203.96-31.501 1202.67-32.1125 1201.39-32.724 1199.99-33.0298 1198.47-33.0298 1196.98-33.0298 1195.59-32.744 1194.3-32.1724 1193.01-31.6008 1191.91-30.7928 1191.01-29.7483 1189.95-28.5616 1189.04-26.9401 1188.27-24.8838 1187.88-23.4324 1187.54-20.5609 1187.24-16.2692 1186.97-12.3938 1186.75-6.9707 1186.57 0 1183.93-0.0540364 1181.77-0.0810547 1180.11-0.0810547 1178.42-0.0810547 1176.08-0.0540364 1173.09 0ZM1253.03-10.0913C1252.71-8.04932 1252.16-4.79953 1251.39-0.341949 1248.74 0.25794 1246.75 0.627013 1245.42 0.76527 1244.09 0.903527 1242.83 0.972656 1241.65 0.972656 1239.56 0.972656 1237.68 0.773291 1236.01 0.374561 1234.35-0.0241686 1232.94-0.754927 1231.81-1.81771 1230.67-2.8805 1229.9-4.1036 1229.51-5.48702 1229.12-6.87044 1228.92-8.29713 1228.92-9.76709 1228.92-10.1352 1228.93-10.6268 1228.96-11.2419 1228.99-11.857 1229.1-13.7692 1229.29-16.9784L1230.21-32.9893 1224.38-32.9893C1224.52-35.2149 1224.65-38.3625 1224.77-42.4321L1230.93-42.4321C1231.04-43.5318 1231.18-46.1446 1231.36-50.2704L1236.78-51.3228C1237.64-51.4841 1239.91-51.9383 1243.59-52.6855 1243.39-48.4606 1243.28-45.0428 1243.25-42.4321L1253.56-42.4321C1253.37-38.3832 1253.28-35.2356 1253.28-32.9893L1242.89-32.9893C1242.36-22.6717 1242.09-16.5791 1242.09-14.7114 1242.09-13.119 1242.24-11.938 1242.55-11.1684 1242.85-10.3989 1243.33-9.85131 1243.98-9.52582 1244.64-9.20034 1245.36-9.0376 1246.14-9.0376 1246.79-9.0376 1247.48-9.09005 1248.2-9.19496 1248.92-9.29986 1250.53-9.59865 1253.03-10.0913ZM1295.48-10.8208C1295.12-8.62177 1294.59-5.26285 1293.88-0.744057 1290.56-0.0365168 1287.89 0.426487 1285.87 0.644955 1283.85 0.863422 1281.8 0.972656 1279.72 0.972656 1276.08 0.972656 1272.82 0.612026 1269.95-0.109234 1267.07-0.830494 1264.53-2.17782 1262.31-4.1512 1260.09-6.12459 1258.47-8.51971 1257.44-11.3366 1256.4-14.1534 1255.89-17.1228 1255.89-20.2447 1255.89-23.6595 1256.49-26.9804 1257.69-30.2074 1258.89-33.4344 1260.58-36.0805 1262.76-38.1457 1264.94-40.2109 1267.42-41.6713 1270.2-42.5268 1272.98-43.3823 1275.87-43.8101 1278.87-43.8101 1281.68-43.8101 1284.39-43.4506 1286.99-42.7316 1289.58-42.0127 1291.78-40.8244 1293.57-39.1668 1295.36-37.5092 1296.73-35.5327 1297.67-33.2372 1298.62-30.9417 1299.09-28.3978 1299.09-25.6057 1299.09-24.3172 1298.9-22.7394 1298.53-20.8722L1268.92-20.8323C1268.9-20.5051 1268.9-19.9779 1268.9-19.2505 1268.9-17.5348 1269.19-15.9714 1269.77-14.5601 1270.34-13.1488 1271.18-11.9614 1272.27-10.9978 1273.35-10.0342 1274.67-9.31802 1276.22-8.84921 1277.76-8.3804 1279.29-8.146 1280.81-8.146 1282.66-8.146 1284.65-8.34272 1286.76-8.73617 1288.87-9.12963 1291.78-9.8245 1295.48-10.8208ZM1269.3-27.1919 1286.61-27.1533C1286.61-27.8288 1286.57-28.4606 1286.49-29.0489 1286.41-29.6372 1286.25-30.2958 1285.98-31.0246 1285.72-31.7535 1285.38-32.3837 1284.95-32.9152 1284.53-33.4467 1284.03-33.8895 1283.46-34.2437 1282.89-34.5979 1282.21-34.8759 1281.41-35.0777 1280.61-35.2795 1279.78-35.3804 1278.91-35.3804 1277.86-35.3804 1276.86-35.2216 1275.89-34.9042 1274.92-34.5867 1274.02-34.1173 1273.2-33.4958 1272.38-32.8744 1271.71-32.1803 1271.2-31.4134 1270.69-30.6466 1270.31-29.8995 1270.05-29.1721 1269.8-28.4447 1269.55-27.7847 1269.3-27.1919ZM1306.35 6.93018C1313.03 8.92952 1318.57 9.9292 1322.96 9.9292 1324.6 9.9292 1326.13 9.73374 1327.55 9.34282 1328.96 8.9519 1330.14 8.39707 1331.06 7.67835 1331.99 6.95962 1332.72 5.96649 1333.25 4.69896 1333.78 3.43142 1334.13 1.92019 1334.32 0.165276 1334.5-1.58964 1334.65-3.98181 1334.76-7.01123 1334.65-5.74306 1334.17-4.69537 1333.3-3.86814 1332.43-3.04092 1331.37-2.29064 1330.12-1.61729 1328.88-0.943949 1327.45-0.404746 1325.83 0.00031662 1324.21 0.405379 1322.48 0.60791 1320.65 0.60791 1318.16 0.60791 1315.8 0.220367 1313.58-0.554718 1311.35-1.3298 1309.36-2.55597 1307.61-4.23321 1305.87-5.91045 1304.54-8.007 1303.64-10.5229 1302.74-13.0387 1302.29-15.6642 1302.29-18.3994 1302.29-22.258 1303.03-25.9222 1304.5-29.3921 1305.97-32.8621 1308.12-35.7136 1310.95-37.9466 1313.78-40.1796 1316.81-41.7151 1320.04-42.5531 1323.27-43.3911 1326.81-43.8101 1330.66-43.8101 1332.73-43.8101 1335.15-43.6773 1337.92-43.4117 1340.69-43.1462 1344.48-42.5822 1349.3-41.7197L1348.36-28.1329 1347.51-12.0708 1347.18 2.47597C1347.1 4.16334 1346.89 5.79435 1346.55 7.36901 1346.22 8.94367 1345.68 10.3871 1344.93 11.6994 1344.18 13.0117 1343.23 14.1648 1342.1 15.1588 1340.96 16.1528 1339.67 16.9558 1338.23 17.568 1336.79 18.1801 1335.04 18.6811 1332.96 19.071 1330.88 19.4608 1328.67 19.6558 1326.32 19.6558 1323.81 19.6558 1320.97 19.4921 1317.8 19.1647 1314.64 18.8373 1311.01 18.1799 1306.91 17.1925ZM1335.94-33.2615C1334.06-33.6474 1332.15-33.8403 1330.22-33.8403 1326.86-33.8403 1324.1-33.237 1321.95-32.0302 1319.79-30.8235 1318.12-29.0542 1316.95-26.7224 1315.77-24.3906 1315.18-21.9057 1315.18-19.2676 1315.18-17.3261 1315.53-15.553 1316.22-13.9484 1316.92-12.3437 1318-11.1376 1319.45-10.33 1320.9-9.52245 1322.54-9.11865 1324.34-9.11865 1325.63-9.11865 1326.82-9.31696 1327.92-9.71358 1329.03-10.1102 1330.03-10.7253 1330.94-11.5588 1331.85-12.3924 1332.65-13.432 1333.35-14.6775 1334.04-15.9231 1334.54-17.3446 1334.84-18.9421 1335.14-20.5396 1335.37-22.59 1335.53-25.0934 1335.69-27.5968 1335.83-30.3195 1335.94-33.2615ZM1355.52 0 1356.7-20.113 1357.02-31.2592C1357.07-33.5473 1357.1-35.8532 1357.1-38.1768 1357.1-38.5651 1357.07-40.1187 1357.02-42.8374 1359.68-42.7834 1361.8-42.7563 1363.38-42.7563 1365.1-42.7563 1367.21-42.7834 1369.71-42.8374L1369.5-37.123C1369.54-38.3773 1369.95-39.3867 1370.72-40.1512 1371.5-40.9157 1372.38-41.5741 1373.35-42.1263 1374.33-42.6785 1375.4-43.0971 1376.57-43.3823 1377.74-43.6675 1378.94-43.8101 1380.16-43.8101 1381.3-43.8101 1382.69-43.6137 1384.34-43.2211 1384.34-40.1833 1384.46-36.516 1384.7-32.2192 1382.46-32.6515 1380.73-32.8677 1379.51-32.8677 1378.07-32.8677 1376.79-32.6522 1375.7-32.2211 1374.6-31.7901 1373.61-31.1303 1372.72-30.2416 1371.83-29.353 1371.01-28.0939 1370.26-26.4644 1369.95-25.7171 1369.68-24.4304 1369.43-22.6041 1369.23-21.2595 1369.06-18.9567 1368.92-15.6955 1368.78-12.4343 1368.71-9.06673 1368.71-5.59277 1368.71-4.12999 1368.75-2.26573 1368.83 0 1366.19-0.0540364 1364.03-0.0810547 1362.34-0.0810547 1360.67-0.0810547 1358.4-0.0540364 1355.52 0ZM1390.77-32.1787C1391.15-34.7176 1391.38-36.401 1391.48-37.2291 1391.58-38.0572 1391.78-39.4166 1392.07-41.3075 1396.11-42.2586 1399.56-42.9135 1402.43-43.2721 1405.3-43.6307 1408.05-43.8101 1410.67-43.8101 1413.7-43.8101 1416.52-43.4484 1419.13-42.725 1421.74-42.0016 1423.81-40.8134 1425.34-39.1602 1426.88-37.507 1427.65-35.1663 1427.65-32.1382 1427.65-30.6864 1427.43-26.7725 1427-20.3967 1426.56-14.0208 1426.3-7.22189 1426.21 0 1423.59-0.0540364 1421.42-0.0810547 1419.71-0.0810547 1418.07-0.0810547 1415.86-0.0540364 1413.1 0 1413.46-3.88598 1413.74-7.95138 1413.96-12.1962L1414.49-21.439C1414.3-20.837 1413.92-20.3942 1413.35-20.1107 1412.78-19.8273 1412.14-19.5636 1411.42-19.3198 1410.7-19.076 1409.49-18.7177 1407.79-18.2449 1406.09-17.7721 1404.74-17.3679 1403.76-17.0322 1402.78-16.6966 1401.9-16.317 1401.11-15.8934 1400.33-15.4697 1399.69-15.0159 1399.19-14.5319 1398.7-14.0479 1398.34-13.5573 1398.13-13.0603 1397.92-12.5632 1397.82-12.0058 1397.82-11.3882 1397.82-10.4257 1398.09-9.6016 1398.64-8.91601 1399.2-8.23043 1399.9-7.74832 1400.76-7.4697 1401.62-7.19107 1402.69-7.05176 1403.98-7.05176 1404.83-7.05176 1405.71-7.11561 1406.61-7.24331 1407.52-7.37102 1409.13-7.71244 1411.44-8.26758 1410.84-6.01704 1410.13-3.212 1409.3 0.147545 1407.04 0.529177 1405.32 0.762104 1404.14 0.846325 1402.96 0.930546 1401.87 0.972656 1400.86 0.972656 1397.32 0.972656 1394.4 0.486328 1392.08-0.486328 1389.76-1.45898 1388.05-3.01813 1386.93-5.16375 1385.81-7.30938 1385.26-9.46524 1385.26-11.6313 1385.26-12.8995 1385.47-14.14 1385.91-15.3529 1386.34-16.5658 1386.97-17.6782 1387.81-18.6901 1388.65-19.702 1389.73-20.6695 1391.03-21.5925 1392.34-22.5156 1394.19-23.396 1396.58-24.2338 1398.97-25.0715 1402.13-25.9147 1406.04-26.7632 1407.05-26.976 1408.1-27.233 1409.17-27.5342 1410.24-27.8354 1411.09-28.1235 1411.7-28.3986 1412.32-28.6736 1412.83-29.0084 1413.23-29.4029 1413.64-29.7974 1413.94-30.2076 1414.13-30.6336 1414.32-31.0596 1414.41-31.48 1414.41-31.895 1414.41-32.7292 1414.13-33.4444 1413.57-34.0407 1413-34.637 1412.23-35.0634 1411.24-35.3199 1410.25-35.5764 1409.13-35.7046 1407.88-35.7046 1403.08-35.7046 1397.37-34.5293 1390.77-32.1787ZM1461.58-10.0913C1461.25-8.04932 1460.7-4.79953 1459.93-0.341949 1457.28 0.25794 1455.29 0.627013 1453.96 0.76527 1452.63 0.903527 1451.38 0.972656 1450.19 0.972656 1448.1 0.972656 1446.22 0.773291 1444.55 0.374561 1442.89-0.0241686 1441.49-0.754927 1440.35-1.81771 1439.21-2.8805 1438.45-4.1036 1438.05-5.48702 1437.66-6.87044 1437.46-8.29713 1437.46-9.76709 1437.46-10.1352 1437.48-10.6268 1437.5-11.2419 1437.53-11.857 1437.64-13.7692 1437.83-16.9784L1438.76-32.9893 1432.92-32.9893C1433.06-35.2149 1433.19-38.3625 1433.31-42.4321L1439.47-42.4321C1439.58-43.5318 1439.73-46.1446 1439.9-50.2704L1445.32-51.3228C1446.18-51.4841 1448.45-51.9383 1452.13-52.6855 1451.93-48.4606 1451.82-45.0428 1451.79-42.4321L1462.1-42.4321C1461.91-38.3832 1461.82-35.2356 1461.82-32.9893L1451.43-32.9893C1450.9-22.6717 1450.63-16.5791 1450.63-14.7114 1450.63-13.119 1450.78-11.938 1451.09-11.1684 1451.4-10.3989 1451.87-9.85131 1452.53-9.52582 1453.18-9.20034 1453.9-9.0376 1454.69-9.0376 1455.33-9.0376 1456.02-9.09005 1456.74-9.19496 1457.46-9.29986 1459.07-9.59865 1461.58-10.0913ZM1467.78-48.2681C1467.89-51.6128 1467.95-54.0175 1467.95-55.4819L1467.95-57.5894C1470.56-57.5353 1472.83-57.5083 1474.75-57.5083 1477.13-57.5083 1479.37-57.5353 1481.48-57.5894 1481.39-56.2899 1481.33-55.2037 1481.3-54.3307L1481.07-48.2681C1478.47-48.3221 1476.3-48.3491 1474.59-48.3491 1472.87-48.3491 1470.6-48.3221 1467.78-48.2681ZM1465.56 0C1465.98-4.67964 1466.27-8.42293 1466.44-11.2299 1466.71-15.4519 1466.94-20.3777 1467.15-26.0072 1467.36-31.6367 1467.5-37.2467 1467.59-42.8374 1470.35-42.7834 1472.59-42.7563 1474.31-42.7563 1475.93-42.7563 1478.17-42.7834 1481.04-42.8374 1480.67-37.5292 1480.37-32.7466 1480.15-28.4898 1479.93-24.2329 1479.77-19.471 1479.67-14.2039 1479.57-8.93681 1479.52-4.20218 1479.52 0 1476.47-0.0540364 1474.21-0.0810547 1472.74-0.0810547 1471.35-0.0810547 1468.95-0.0540364 1465.56 0ZM1487.05 0C1487.67-6.75371 1488.19-13.9406 1488.6-21.5605 1489.02-29.1805 1489.26-36.2728 1489.31-42.8374 1491.95-42.7834 1494.21-42.7563 1496.08-42.7563 1498.13-42.7563 1500.28-42.7834 1502.53-42.8374L1502.08-35.9478C1501.92-36.9191 1502.17-37.7777 1502.85-38.5235 1503.52-39.2692 1504.38-39.9988 1505.42-40.7122 1506.46-41.4257 1507.57-41.9955 1508.75-42.4217 1509.93-42.8478 1511.24-43.1858 1512.67-43.4355 1514.09-43.6852 1515.59-43.8101 1517.16-43.8101 1519.62-43.8101 1522.02-43.49 1524.33-42.8497 1526.65-42.2095 1528.54-41.1748 1530-39.7456 1531.46-38.3164 1532.42-36.7638 1532.88-35.0878 1533.34-33.4118 1533.58-31.6721 1533.58-29.8687 1533.58-29.2797 1533.53-28.1011 1533.44-26.3326L1532.6-8.47465C1532.49-6.11477 1532.43-3.28989 1532.4 0 1529.69-0.0540364 1527.59-0.0810547 1526.09-0.0810547 1524.04-0.0810547 1521.7-0.0540364 1519.07 0 1519.29-2.9623 1519.56-7.35603 1519.88-13.1812 1520.21-19.0064 1520.37-22.8532 1520.37-24.7217 1520.37-26.7164 1520.07-28.294 1519.46-29.4545 1518.86-30.615 1517.92-31.501 1516.63-32.1125 1515.35-32.724 1513.95-33.0298 1512.43-33.0298 1510.94-33.0298 1509.55-32.744 1508.26-32.1724 1506.96-31.6008 1505.87-30.7928 1504.97-29.7483 1503.91-28.5616 1503-26.9401 1502.23-24.8838 1501.84-23.4324 1501.5-20.5609 1501.2-16.2692 1500.93-12.3938 1500.71-6.9707 1500.53 0 1497.89-0.0540364 1495.73-0.0810547 1494.07-0.0810547 1492.38-0.0810547 1490.03-0.0540364 1487.05 0ZM1542.96 6.93018C1549.65 8.92952 1555.18 9.9292 1559.58 9.9292 1561.22 9.9292 1562.75 9.73374 1564.16 9.34282 1565.58 8.9519 1566.75 8.39707 1567.68 7.67835 1568.61 6.95962 1569.33 5.96649 1569.86 4.69896 1570.39 3.43142 1570.75 1.92019 1570.93 0.165276 1571.12-1.58964 1571.26-3.98181 1571.37-7.01123 1571.27-5.74306 1570.78-4.69537 1569.91-3.86814 1569.04-3.04092 1567.99-2.29064 1566.74-1.61729 1565.49-0.943949 1564.06-0.404746 1562.44 0.00031662 1560.82 0.405379 1559.1 0.60791 1557.27 0.60791 1554.78 0.60791 1552.42 0.220367 1550.19-0.554718 1547.96-1.3298 1545.98-2.55597 1544.23-4.23321 1542.48-5.91045 1541.16-8.007 1540.26-10.5229 1539.36-13.0387 1538.91-15.6642 1538.91-18.3994 1538.91-22.258 1539.64-25.9222 1541.11-29.3921 1542.58-32.8621 1544.73-35.7136 1547.56-37.9466 1550.4-40.1796 1553.43-41.7151 1556.65-42.5531 1559.88-43.3911 1563.42-43.8101 1567.28-43.8101 1569.35-43.8101 1571.77-43.6773 1574.54-43.4117 1577.3-43.1462 1581.1-42.5822 1585.92-41.7197L1584.97-28.1329 1584.12-12.0708 1583.79 2.47597C1583.71 4.16334 1583.5 5.79435 1583.17 7.36901 1582.83 8.94367 1582.29 10.3871 1581.54 11.6994 1580.79 13.0117 1579.85 14.1648 1578.71 15.1588 1577.57 16.1528 1576.29 16.9558 1574.85 17.568 1573.41 18.1801 1571.65 18.6811 1569.57 19.071 1567.5 19.4608 1565.29 19.6558 1562.94 19.6558 1560.42 19.6558 1557.58 19.4921 1554.42 19.1647 1551.25 18.8373 1547.62 18.1799 1543.52 17.1925ZM1572.55-33.2615C1570.67-33.6474 1568.77-33.8403 1566.83-33.8403 1563.48-33.8403 1560.72-33.237 1558.56-32.0302 1556.41-30.8235 1554.74-29.0542 1553.56-26.7224 1552.38-24.3906 1551.8-21.9057 1551.8-19.2676 1551.8-17.3261 1552.14-15.553 1552.84-13.9484 1553.53-12.3437 1554.61-11.1376 1556.06-10.33 1557.52-9.52245 1559.15-9.11865 1560.96-9.11865 1562.24-9.11865 1563.44-9.31696 1564.54-9.71358 1565.64-10.1102 1566.64-10.7253 1567.55-11.5588 1568.46-12.3924 1569.26-13.432 1569.96-14.6775 1570.66-15.9231 1571.16-17.3446 1571.46-18.9421 1571.75-20.5396 1571.98-22.59 1572.15-25.0934 1572.31-27.5968 1572.44-30.3195 1572.55-33.2615ZM1613.61 0C1614.13-6.33831 1614.48-11.3237 1614.67-14.9562 1614.86-18.5886 1615.11-24.802 1615.4-33.5962 1615.7-42.3904 1615.85-48.4293 1615.85-51.7129 1615.85-52.7041 1615.84-54.4468 1615.81-56.9409 1619.22-56.8869 1622.31-56.8599 1625.09-56.8599 1627.69-56.8599 1630.65-56.9004 1633.97-56.9814 1637.29-57.0625 1639.87-57.103 1641.7-57.103 1644.77-57.103 1647.09-56.9701 1648.67-56.7044 1650.25-56.4386 1651.68-56.0292 1652.96-55.4759 1654.24-54.9227 1655.31-54.2492 1656.18-53.4556 1657.05-52.6619 1657.79-51.7164 1658.42-50.619 1659.05-49.5216 1659.52-48.3551 1659.81-47.1197 1660.11-45.8842 1660.26-44.6324 1660.26-43.3643 1660.26-41.8073 1660.07-40.2986 1659.67-38.8382 1659.28-37.3777 1658.73-36.0695 1658-34.9137 1657.27-33.7578 1656.42-32.7764 1655.46-31.9694 1654.5-31.1625 1653.57-30.5263 1652.66-30.0608 1651.76-29.5954 1650.78-29.4292 1649.72-29.5622 1650.57-29.6888 1651.4-29.615 1652.21-29.3408 1653.02-29.0667 1653.88-28.6497 1654.8-28.0899 1655.72-27.5301 1656.59-26.8052 1657.43-25.9153 1658.26-25.0254 1658.92-24.0933 1659.4-23.1189 1659.89-22.1446 1660.27-21.0638 1660.54-19.8764 1660.81-18.6891 1660.95-17.4673 1660.95-16.2109 1660.95-13.5007 1660.36-11.0014 1659.17-8.71306 1657.98-6.42474 1656.34-4.61452 1654.25-3.2824 1652.16-1.95027 1649.86-1.07018 1647.36-0.642105 1644.86-0.214035 1639.59 0 1631.55 0L1621.76-0.0405273ZM1628.54-34.0024 1634.2-34.0024C1636.96-34.0024 1638.79-34.0662 1639.69-34.1937 1640.6-34.3212 1641.52-34.5624 1642.48-34.9175 1643.43-35.2725 1644.23-35.8162 1644.87-36.5487 1645.52-37.2811 1646-38.0972 1646.3-38.9968 1646.61-39.8964 1646.76-40.8119 1646.76-41.7432 1646.76-42.6145 1646.6-43.4427 1646.28-44.2277 1645.96-45.0127 1645.48-45.655 1644.83-46.1546 1644.18-46.6543 1643.36-47.0233 1642.37-47.2618 1641.38-47.5004 1639.91-47.6196 1637.95-47.6196L1629.05-47.6196ZM1627.55-9.52392 1635.9-9.52392C1637.74-9.52392 1639.15-9.59443 1640.14-9.73543 1641.12-9.87643 1642.05-10.1223 1642.93-10.4732 1643.8-10.824 1644.48-11.1886 1644.95-11.5671 1645.42-11.9455 1645.84-12.4381 1646.22-13.0447 1646.59-13.6514 1646.89-14.3482 1647.12-15.1351 1647.34-15.922 1647.45-16.7336 1647.45-17.5699 1647.45-18.6801 1647.26-19.658 1646.88-20.5034 1646.49-21.3487 1645.92-22.0791 1645.16-22.6944 1644.4-23.3097 1643.5-23.7608 1642.45-24.0479 1641.41-24.335 1639.76-24.4785 1637.52-24.4785L1628.12-24.4785ZM1667.47 0C1668.11-9.89669 1668.64-19.7181 1669.04-29.4643 1669.44-39.2105 1669.65-46.6495 1669.65-51.7813L1669.61-56.9377 1677.19-56.8535C1678.14-56.8577 1680.49-56.8869 1684.25-56.9409 1683.13-42.1413 1682.43-23.161 1682.12 0L1675.33-0.0810547C1674.33-0.0810547 1671.71-0.0540364 1667.47 0ZM1690.44 0 1691.5-10.1318 1694.18-42.2757 1695.16-56.939C1698.99-56.8862 1702.06-56.8599 1704.38-56.8599 1706.38-56.8599 1709.21-56.886 1712.89-56.9384 1713.39-54.4181 1713.75-52.682 1713.97-51.73 1714.2-50.778 1714.63-49.2645 1715.26-47.1893 1715.89-45.1142 1716.63-42.8479 1717.47-40.3906 1719.02-35.6657 1720.36-31.1723 1721.49-26.9102L1723.9-15.9272 1728.44-30.3233 1736.32-49.6257C1736.6-50.3063 1736.87-51.0212 1737.13-51.7705 1737.39-52.5198 1737.93-54.2425 1738.74-56.9384 1741.85-56.886 1744.92-56.8599 1747.94-56.8599 1750.18-56.8599 1753.14-56.8869 1756.82-56.9409 1756.43-48.5729 1756.15-39.7982 1755.96-30.6168 1755.78-21.4355 1755.69-14.3099 1755.69-9.24023 1755.69-6.45736 1755.71-3.37728 1755.77 0 1752.51-0.0540364 1750.4-0.0810547 1749.45-0.0810547 1748.05-0.0810547 1745.91-0.0540364 1743.04 0 1743.2-3.33422 1743.31-5.87815 1743.36-7.6318L1744.04-31.7456C1744.12-35.1414 1744.17-38.4832 1744.17-41.771L1744.18-44.2559 1730.89-5.81567 1728.91 0C1725.85-0.0540364 1723.85-0.0810547 1722.89-0.0810547 1721.68-0.0810547 1719.56-0.0540364 1716.53 0L1709.39-25.5538C1709.2-26.2626 1708.67-27.9997 1707.8-30.7653L1705.17-39.3951C1704.92-40.2103 1704.75-40.8066 1704.66-41.184 1704.56-41.5614 1704.66-42.5313 1704.96-44.0937L1704.93-39.5768C1704.79-37.9089 1704.59-35.1786 1704.32-31.3859L1702.74-6.18612C1702.68-4.99943 1702.64-2.93739 1702.61 0L1696.55-0.0810547C1695.67-0.0810547 1693.63-0.0540364 1690.44 0ZM1787.8-32.1787C1788.18-34.7176 1788.42-36.401 1788.52-37.2291 1788.61-38.0572 1788.81-39.4166 1789.1-41.3075 1793.14-42.2586 1796.59-42.9135 1799.46-43.2721 1802.33-43.6307 1805.08-43.8101 1807.7-43.8101 1810.73-43.8101 1813.55-43.4484 1816.16-42.725 1818.77-42.0016 1820.84-40.8134 1822.38-39.1602 1823.91-37.507 1824.68-35.1663 1824.68-32.1382 1824.68-30.6864 1824.46-26.7725 1824.03-20.3967 1823.59-14.0208 1823.33-7.22189 1823.25 0 1820.62-0.0540364 1818.45-0.0810547 1816.74-0.0810547 1815.1-0.0810547 1812.9-0.0540364 1810.13 0 1810.49-3.88598 1810.77-7.95138 1810.99-12.1962L1811.52-21.439C1811.33-20.837 1810.95-20.3942 1810.38-20.1107 1809.81-19.8273 1809.17-19.5636 1808.45-19.3198 1807.74-19.076 1806.53-18.7177 1804.82-18.2449 1803.12-17.7721 1801.78-17.3679 1800.79-17.0322 1799.81-16.6966 1798.93-16.317 1798.15-15.8934 1797.36-15.4697 1796.72-15.0159 1796.22-14.5319 1795.73-14.0479 1795.38-13.5573 1795.17-13.0603 1794.96-12.5632 1794.85-12.0058 1794.85-11.3882 1794.85-10.4257 1795.13-9.6016 1795.68-8.91601 1796.23-8.23043 1796.93-7.74832 1797.79-7.4697 1798.65-7.19107 1799.72-7.05176 1801.01-7.05176 1801.86-7.05176 1802.74-7.11561 1803.64-7.24331 1804.55-7.37102 1806.16-7.71244 1808.47-8.26758 1807.87-6.01704 1807.16-3.212 1806.33 0.147545 1804.07 0.529177 1802.35 0.762104 1801.17 0.846325 1799.99 0.930546 1798.9 0.972656 1797.89 0.972656 1794.35 0.972656 1791.43 0.486328 1789.11-0.486328 1786.79-1.45898 1785.08-3.01813 1783.96-5.16375 1782.84-7.30938 1782.29-9.46524 1782.29-11.6313 1782.29-12.8995 1782.5-14.14 1782.94-15.3529 1783.37-16.5658 1784.01-17.6782 1784.85-18.6901 1785.68-19.702 1786.76-20.6695 1788.06-21.5925 1789.37-22.5156 1791.22-23.396 1793.61-24.2338 1796-25.0715 1799.16-25.9147 1803.07-26.7632 1804.09-26.976 1805.13-27.233 1806.2-27.5342 1807.28-27.8354 1808.12-28.1235 1808.73-28.3986 1809.35-28.6736 1809.86-29.0084 1810.26-29.4029 1810.67-29.7974 1810.97-30.2076 1811.16-30.6336 1811.35-31.0596 1811.44-31.48 1811.44-31.895 1811.44-32.7292 1811.16-33.4444 1810.6-34.0407 1810.03-34.637 1809.26-35.0634 1808.27-35.3199 1807.28-35.5764 1806.16-35.7046 1804.91-35.7046 1800.11-35.7046 1794.41-34.5293 1787.8-32.1787ZM1831.37 0C1831.99-6.75371 1832.51-13.9406 1832.93-21.5605 1833.34-29.1805 1833.58-36.2728 1833.64-42.8374 1836.27-42.7834 1838.53-42.7563 1840.4-42.7563 1842.45-42.7563 1844.6-42.7834 1846.85-42.8374L1846.4-35.9478C1846.24-36.9191 1846.5-37.7777 1847.17-38.5235 1847.84-39.2692 1848.7-39.9988 1849.74-40.7122 1850.79-41.4257 1851.9-41.9955 1853.08-42.4217 1854.26-42.8478 1855.56-43.1858 1856.99-43.4355 1858.42-43.6852 1859.92-43.8101 1861.48-43.8101 1863.95-43.8101 1866.34-43.49 1868.66-42.8497 1870.98-42.2095 1872.86-41.1748 1874.32-39.7456 1875.78-38.3164 1876.74-36.7638 1877.21-35.0878 1877.67-33.4118 1877.9-31.6721 1877.9-29.8687 1877.9-29.2797 1877.85-28.1011 1877.76-26.3326L1876.92-8.47465C1876.82-6.11477 1876.75-3.28989 1876.72 0 1874.01-0.0540364 1871.91-0.0810547 1870.41-0.0810547 1868.36-0.0810547 1866.02-0.0540364 1863.39 0 1863.61-2.9623 1863.88-7.35603 1864.21-13.1812 1864.53-19.0064 1864.69-22.8532 1864.69-24.7217 1864.69-26.7164 1864.39-28.294 1863.79-29.4545 1863.18-30.615 1862.24-31.501 1860.96-32.1125 1859.67-32.724 1858.27-33.0298 1856.76-33.0298 1855.26-33.0298 1853.87-32.744 1852.58-32.1724 1851.29-31.6008 1850.19-30.7928 1849.29-29.7483 1848.24-28.5616 1847.32-26.9401 1846.55-24.8838 1846.16-23.4324 1845.82-20.5609 1845.53-16.2692 1845.25-12.3938 1845.03-6.9707 1844.85 0 1842.21-0.0540364 1840.06-0.0810547 1838.39-0.0810547 1836.7-0.0810547 1834.36-0.0540364 1831.37 0ZM1927.94 0C1925.11-0.0540364 1923.08-0.0810547 1921.85-0.0810547 1920.51-0.0810547 1918.38-0.0540364 1915.45 0L1915.81-7.05176C1915.61-5.72069 1915.06-4.61104 1914.15-3.72282 1913.25-2.83459 1912.14-2.01254 1910.81-1.25666 1909.48-0.500787 1908.06 0.0597356 1906.55 0.424904 1905.03 0.790072 1903.44 0.972656 1901.79 0.972656 1899.07 0.972656 1896.52 0.481262 1894.17-0.501526 1891.81-1.48431 1889.79-2.87902 1888.11-4.68566 1886.43-6.49229 1885.2-8.6262 1884.41-11.0874 1883.62-13.5486 1883.23-16.1075 1883.23-18.7642 1883.23-22.4137 1883.93-25.9707 1885.32-29.4352 1886.71-32.8997 1888.62-35.7145 1891.07-37.8798 1893.51-40.045 1896.27-41.5747 1899.34-42.4689 1902.41-43.363 1905.68-43.8101 1909.15-43.8101 1911.63-43.8101 1914.15-43.5804 1916.73-43.1211 1916.89-46.115 1916.98-49.5329 1916.98-53.3745L1916.98-56.9409C1919.66-56.8869 1921.88-56.8599 1923.63-56.8599 1925.71-56.8599 1927.97-56.8869 1930.4-56.9409 1929.8-49.4623 1929.24-39.8745 1928.72-28.1773 1928.2-16.4801 1927.94-7.08764 1927.94 0ZM1916.26-33.9885C1914.69-34.4031 1913.02-34.6103 1911.24-34.6103 1909.21-34.6103 1907.27-34.3283 1905.42-33.7643 1903.58-33.2003 1901.95-32.247 1900.54-30.9043 1899.14-29.5616 1898.05-27.8223 1897.28-25.6864 1896.5-23.5505 1896.12-21.4862 1896.12-19.4937 1896.12-17.5006 1896.46-15.7052 1897.15-14.1073 1897.83-12.5094 1898.89-11.2583 1900.3-10.3538 1901.72-9.44931 1903.34-8.99707 1905.15-8.99707 1906.54-8.99707 1907.78-9.23517 1908.88-9.71136 1909.98-10.1876 1910.99-10.9372 1911.93-11.9603 1912.86-12.9834 1913.66-14.3178 1914.31-15.9633 1914.97-17.6089 1915.44-19.8519 1915.74-22.6921 1915.93-24.7489 1916.1-28.5144 1916.26-33.9885ZM1957.32 0 1958.42-14.9995 1959.22-32.596 1959.75-50.1108C1959.77-50.8665 1959.79-53.1432 1959.79-56.9409 1962.86-56.8869 1965.95-56.8599 1969.07-56.8599 1971.36-56.8599 1974.12-56.9004 1977.35-56.9814 1980.58-57.0625 1983.21-57.103 1985.24-57.103 1988.44-57.103 1991.44-56.9084 1994.23-56.5192 1997.03-56.1299 1999.49-55.3902 2001.61-54.3 2003.74-53.2098 2005.57-51.8524 2007.11-50.2279 2008.65-48.6035 2009.91-46.8069 2010.89-44.8381 2011.86-42.8694 2012.61-40.6794 2013.13-38.2683 2013.64-35.8571 2013.9-33.422 2013.9-30.9629 2013.9-26.2372 2013.07-21.7142 2011.42-17.3938 2009.77-13.0734 2007.29-9.49617 2004-6.662 2000.7-3.82783 1997.07-2.00895 1993.09-1.20537 1989.11-0.401791 1984.63 0 1979.64 0L1965.87-0.0810547C1965.01-0.0810547 1962.16-0.0540364 1957.32 0ZM1971.42-10.2002C1972.92-10.1276 1974.82-10.0913 1977.13-10.0913 1979.6-10.0913 1981.84-10.2088 1983.87-10.4437 1985.89-10.6786 1987.62-11.0477 1989.07-11.5509 1990.52-12.0541 1991.96-12.9338 1993.41-14.19 1994.86-15.4461 1996.05-16.9063 1996.98-18.5707 1997.91-20.2351 1998.62-22.1089 1999.12-24.1923 1999.63-26.2756 1999.88-28.3839 1999.88-30.5171 1999.88-34.4284 1999.22-37.6186 1997.92-40.0876 1996.61-42.5566 1994.89-44.3346 1992.76-45.4216 1990.62-46.5087 1987.28-47.0522 1982.73-47.0522 1979.69-47.0522 1976.46-47.0056 1973.04-46.9123ZM2021.22-48.2681C2021.33-51.6128 2021.38-54.0175 2021.38-55.4819L2021.38-57.5894C2024-57.5353 2026.27-57.5083 2028.19-57.5083 2030.56-57.5083 2032.81-57.5353 2034.92-57.5894 2034.83-56.2899 2034.77-55.2037 2034.74-54.3307L2034.51-48.2681C2031.9-48.3221 2029.74-48.3491 2028.03-48.3491 2026.31-48.3491 2024.04-48.3221 2021.22-48.2681ZM2019 0C2019.42-4.67964 2019.71-8.42293 2019.88-11.2299 2020.15-15.4519 2020.38-20.3777 2020.59-26.0072 2020.79-31.6367 2020.94-37.2467 2021.03-42.8374 2023.78-42.7834 2026.02-42.7563 2027.75-42.7563 2029.37-42.7563 2031.61-42.7834 2034.48-42.8374 2034.11-37.5292 2033.81-32.7466 2033.59-28.4898 2033.37-24.2329 2033.2-19.471 2033.11-14.2039 2033.01-8.93681 2032.96-4.20218 2032.96 0 2029.91-0.0540364 2027.65-0.0810547 2026.18-0.0810547 2024.78-0.0810547 2022.39-0.0540364 2019 0ZM2042.27 0 2042.76-7.59444 2043.98-33.0298 2038.95-33.0298C2039.03-34.4588 2039.12-36.0752 2039.21-37.8791 2039.31-39.683 2039.38-41.2547 2039.42-42.5942L2044.91-42.5942 2044.91-43.4048C2044.91-46.3802 2045.03-48.6582 2045.28-50.239 2045.53-51.8198 2046.03-53.1459 2046.75-54.2174 2047.48-55.2888 2048.5-56.2116 2049.8-56.9859 2051.1-57.7601 2052.51-58.2839 2054.04-58.5573 2055.56-58.8306 2057.08-58.9673 2058.6-58.9673 2061.75-58.9673 2065.28-58.4744 2069.19-57.4887 2069.28-54.1114 2069.44-51.0379 2069.67-48.2681 2066.39-49.1867 2063.74-49.646 2061.72-49.646 2060.98-49.646 2060.3-49.5577 2059.69-49.381 2059.07-49.2043 2058.59-48.9741 2058.23-48.6904 2057.87-48.4067 2057.57-48.0305 2057.32-47.5617 2057.07-47.0929 2056.9-46.5094 2056.81-45.8114 2056.71-45.1134 2056.66-44.2706 2056.66-43.2832L2056.66-42.5942 2066.99-42.5942C2066.82-40.1242 2066.64-36.936 2066.46-33.0298L2056.73-33.0298C2056.23-22.765 2055.84-11.755 2055.55 0 2052.53-0.0540364 2050.31-0.0810547 2048.87-0.0810547 2047.39-0.0810547 2045.19-0.0540364 2042.27 0ZM2070.92 0 2071.41-7.59444 2072.62-33.0298 2067.59-33.0298C2067.68-34.4588 2067.77-36.0752 2067.86-37.8791 2067.95-39.683 2068.02-41.2547 2068.06-42.5942L2073.55-42.5942 2073.55-43.4048C2073.55-46.3802 2073.68-48.6582 2073.93-50.239 2074.18-51.8198 2074.67-53.1459 2075.4-54.2174 2076.13-55.2888 2077.14-56.2116 2078.44-56.9859 2079.74-57.7601 2081.16-58.2839 2082.68-58.5573 2084.21-58.8306 2085.73-58.9673 2087.25-58.9673 2090.4-58.9673 2093.92-58.4744 2097.84-57.4887 2097.93-54.1114 2098.09-51.0379 2098.31-48.2681 2095.04-49.1867 2092.39-49.646 2090.37-49.646 2089.62-49.646 2088.95-49.5577 2088.33-49.381 2087.72-49.2043 2087.23-48.9741 2086.87-48.6904 2086.51-48.4067 2086.21-48.0305 2085.97-47.5617 2085.72-47.0929 2085.55-46.5094 2085.45-45.8114 2085.35-45.1134 2085.3-44.2706 2085.3-43.2832L2085.31-42.5942 2095.64-42.5942C2095.47-40.1242 2095.29-36.936 2095.1-33.0298L2085.38-33.0298C2084.88-22.765 2084.49-11.755 2084.2 0 2081.18-0.0540364 2078.95-0.0810547 2077.51-0.0810547 2076.04-0.0810547 2073.84-0.0540364 2070.92 0ZM2141.53 0C2138.58-0.0540364 2136.48-0.0810547 2135.23-0.0810547 2133.64-0.0810547 2131.56-0.0540364 2128.99 0L2129.06-6.72754C2129.31-5.83298 2129.14-5.0198 2128.54-4.28798 2127.94-3.55617 2127.14-2.83364 2126.15-2.1204 2125.16-1.40716 2124.11-0.847697 2122.99-0.442001 2121.87-0.0363058 2120.58 0.300894 2119.13 0.569599 2117.67 0.838304 2116.13 0.972656 2114.51 0.972656 2111.37 0.972656 2108.62 0.511447 2106.27-0.410973 2103.91-1.33339 2102.03-2.75343 2100.62-4.67109 2099.21-6.58875 2098.51-9.3006 2098.51-12.8066L2098.51-13.7084 2099.17-24.2436 2099.78-37.9374C2099.81-39.0156 2099.82-40.6489 2099.82-42.8374 2102.53-42.7834 2104.81-42.7563 2106.66-42.7563 2108.52-42.7563 2110.67-42.7834 2113.1-42.8374L2111.74-23.4552C2111.65-22.0321 2111.6-20.8893 2111.56-20.0268 2111.52-19.1644 2111.51-18.4193 2111.51-17.7915 2111.51-15.9479 2111.76-14.4561 2112.28-13.3161 2112.8-12.176 2113.69-11.3063 2114.98-10.7068 2116.26-10.1073 2117.66-9.80762 2119.2-9.80762 2120.67-9.80762 2122.05-10.0795 2123.33-10.6232 2124.49-11.1214 2125.49-11.8161 2126.32-12.7075 2127.15-13.5989 2127.93-14.9964 2128.66-16.8999 2128.94-17.6746 2129.21-19.1226 2129.45-21.2439 2129.64-22.6835 2129.81-25.2114 2129.97-28.8276 2130.19-33.1493 2130.35-37.8192 2130.45-42.8374 2133.23-42.7834 2135.54-42.7563 2137.37-42.7563 2139.26-42.7563 2141.34-42.7834 2143.62-42.8374 2143.28-38.3448 2142.94-33.2124 2142.59-27.4402 2142.24-21.668 2142-16.8978 2141.86-13.1296 2141.73-9.36139 2141.62-4.98486 2141.53 0ZM2148.59-0.917564 2147.64-11.3071C2151.01-10.1956 2153.58-9.43812 2155.35-9.03475 2157.12-8.63137 2158.75-8.42969 2160.24-8.42969 2161.7-8.42969 2162.89-8.58852 2163.81-8.9062 2164.73-9.22388 2165.4-9.67495 2165.82-10.2594 2166.23-10.8439 2166.44-11.4363 2166.44-12.0366 2166.44-12.2984 2166.42-12.5505 2166.36-12.793 2166.31-13.0356 2166.2-13.2947 2166.05-13.5703 2165.91-13.846 2165.73-14.1078 2165.53-14.3559 2165.33-14.6039 2165.05-14.8881 2164.69-15.2085 2164.34-15.5289 2163.79-15.9673 2163.05-16.5238L2160.79-18.3209C2158.72-19.9407 2157.11-21.2418 2155.96-22.2242 2154.81-23.2065 2153.83-24.225 2153.02-25.2796 2152.21-26.3341 2151.6-27.4418 2151.18-28.6025 2150.77-29.7632 2150.56-30.9688 2150.56-32.2192 2150.56-34.3617 2151.21-36.3936 2152.5-38.3148 2153.8-40.236 2155.66-41.6322 2158.09-42.5034 2160.51-43.3745 2163.33-43.8101 2166.53-43.8101 2170.07-43.8101 2174.42-43.3434 2179.56-42.41L2180.14-32.4624C2176.31-33.7323 2173.02-34.3672 2170.25-34.3672 2168.76-34.3672 2167.5-34.2286 2166.45-33.9515 2165.4-33.6743 2164.68-33.2912 2164.28-32.8021 2163.89-32.3131 2163.69-31.7675 2163.69-31.1655 2163.69-30.786 2163.75-30.4169 2163.88-30.0583 2164.01-29.6997 2164.26-29.3064 2164.61-28.8786 2164.97-28.4507 2165.39-28.0432 2165.86-27.6561 2166.33-27.269 2167.4-26.4403 2169.08-25.17 2170.75-23.8997 2172.25-22.7265 2173.57-21.6505 2174.88-20.5744 2175.97-19.4882 2176.82-18.3918 2177.68-17.2955 2178.34-16.1106 2178.8-14.8371 2179.26-13.5637 2179.49-12.2789 2179.49-10.9829 2179.49-8.79612 2178.82-6.76701 2177.48-4.89558 2176.13-3.02414 2174.14-1.57824 2171.51-0.557884 2168.87 0.462476 2165.94 0.972656 2162.72 0.972656 2161.03 0.972656 2159.01 0.842631 2156.65 0.582581 2154.3 0.32253 2151.61-0.177518 2148.59-0.917564ZM2187.94-48.2681C2188.05-51.6128 2188.1-54.0175 2188.1-55.4819L2188.1-57.5894C2190.72-57.5353 2192.98-57.5083 2194.91-57.5083 2197.28-57.5083 2199.53-57.5353 2201.64-57.5894 2201.55-56.2899 2201.49-55.2037 2201.46-54.3307L2201.23-48.2681C2198.62-48.3221 2196.46-48.3491 2194.75-48.3491 2193.03-48.3491 2190.76-48.3221 2187.94-48.2681ZM2185.72 0C2186.13-4.67964 2186.43-8.42293 2186.6-11.2299 2186.86-15.4519 2187.1-20.3777 2187.31-26.0072 2187.51-31.6367 2187.66-37.2467 2187.75-42.8374 2190.5-42.7834 2192.74-42.7563 2194.47-42.7563 2196.08-42.7563 2198.33-42.7834 2201.2-42.8374 2200.82-37.5292 2200.53-32.7466 2200.31-28.4898 2200.08-24.2329 2199.92-19.471 2199.82-14.2039 2199.72-8.93681 2199.67-4.20218 2199.67 0 2196.63-0.0540364 2194.37-0.0810547 2192.9-0.0810547 2191.5-0.0810547 2189.11-0.0540364 2185.72 0ZM2230.47-43.8101C2233.64-43.8101 2236.71-43.3237 2239.69-42.3511 2242.66-41.3784 2245.18-39.9428 2247.25-38.0441 2249.32-36.1454 2250.88-33.8188 2251.92-31.0642 2252.97-28.3096 2253.49-25.4389 2253.49-22.4521 2253.49-19.2741 2252.94-16.2064 2251.86-13.249 2250.77-10.2915 2249.18-7.72035 2247.09-5.53546 2245.01-3.35058 2242.42-1.71967 2239.33-0.642738 2236.24 0.434191 2232.95 0.972656 2229.46 0.972656 2226.22 0.972656 2223.15 0.491605 2220.23-0.470497 2217.32-1.4326 2214.82-2.88842 2212.73-4.83795 2210.63-6.78749 2209.05-9.1481 2207.97-11.9198 2206.89-14.6915 2206.36-17.5944 2206.36-20.6284 2206.36-23.7055 2206.84-26.6408 2207.82-29.4342 2208.8-32.2277 2210.34-34.7221 2212.43-36.9176 2214.53-39.113 2217.2-40.8106 2220.43-42.0104 2223.67-43.2102 2227.02-43.8101 2230.47-43.8101ZM2230.47-33.8403C2228.3-33.8403 2226.36-33.3114 2224.66-32.2534 2222.96-31.1955 2221.69-29.5989 2220.84-27.4636 2219.99-25.3283 2219.57-22.9689 2219.57-20.3853 2219.57-18.1187 2219.91-16.132 2220.6-14.4252 2221.29-12.7184 2222.4-11.3465 2223.94-10.3095 2225.47-9.27242 2227.31-8.75391 2229.46-8.75391 2231.66-8.75391 2233.59-9.29564 2235.24-10.3791 2236.89-11.4626 2238.14-13.0839 2239-15.243 2239.85-17.4022 2240.28-19.8052 2240.28-22.4521 2240.28-24.5891 2239.95-26.5117 2239.3-28.22 2238.65-29.9283 2237.56-31.2921 2236.04-32.3114 2234.52-33.3307 2232.66-33.8403 2230.47-33.8403ZM2258.2 0C2258.82-6.75371 2259.33-13.9406 2259.75-21.5605 2260.16-29.1805 2260.4-36.2728 2260.46-42.8374 2263.1-42.7834 2265.35-42.7563 2267.23-42.7563 2269.28-42.7563 2271.43-42.7834 2273.68-42.8374L2273.23-35.9478C2273.06-36.9191 2273.32-37.7777 2273.99-38.5235 2274.67-39.2692 2275.52-39.9988 2276.57-40.7122 2277.61-41.4257 2278.72-41.9955 2279.9-42.4217 2281.08-42.8478 2282.38-43.1858 2283.81-43.4355 2285.24-43.6852 2286.74-43.8101 2288.31-43.8101 2290.77-43.8101 2293.16-43.49 2295.48-42.8497 2297.8-42.2095 2299.69-41.1748 2301.15-39.7456 2302.6-38.3164 2303.57-36.7638 2304.03-35.0878 2304.49-33.4118 2304.72-31.6721 2304.72-29.8687 2304.72-29.2797 2304.68-28.1011 2304.59-26.3326L2303.74-8.47465C2303.64-6.11477 2303.57-3.28989 2303.54 0 2300.83-0.0540364 2298.73-0.0810547 2297.23-0.0810547 2295.19-0.0810547 2292.84-0.0540364 2290.21 0 2290.43-2.9623 2290.7-7.35603 2291.03-13.1812 2291.35-19.0064 2291.51-22.8532 2291.51-24.7217 2291.51-26.7164 2291.21-28.294 2290.61-29.4545 2290-30.615 2289.06-31.501 2287.78-32.1125 2286.49-32.724 2285.09-33.0298 2283.58-33.0298 2282.08-33.0298 2280.69-32.744 2279.4-32.1724 2278.11-31.6008 2277.01-30.7928 2276.11-29.7483 2275.06-28.5616 2274.15-26.9401 2273.38-24.8838 2272.98-23.4324 2272.64-20.5609 2272.35-16.2692 2272.08-12.3938 2271.85-6.9707 2271.68 0 2269.03-0.0540364 2266.88-0.0810547 2265.22-0.0810547 2263.52-0.0810547 2261.18-0.0540364 2258.2 0ZM2331.53 0 2332.59-10.1318 2335.27-42.2757 2336.25-56.939C2340.08-56.8862 2343.15-56.8599 2345.47-56.8599 2347.47-56.8599 2350.31-56.886 2353.98-56.9384 2354.48-54.4181 2354.84-52.682 2355.07-51.73 2355.29-50.778 2355.72-49.2645 2356.35-47.1893 2356.99-45.1142 2357.72-42.8479 2358.56-40.3906 2360.11-35.6657 2361.45-31.1723 2362.59-26.9102L2365-15.9272 2369.54-30.3233 2377.41-49.6257C2377.69-50.3063 2377.97-51.0212 2378.23-51.7705 2378.48-52.5198 2379.02-54.2425 2379.83-56.9384 2382.95-56.886 2386.02-56.8599 2389.03-56.8599 2391.27-56.8599 2394.23-56.8869 2397.91-56.9409 2397.53-48.5729 2397.24-39.7982 2397.06-30.6168 2396.87-21.4355 2396.78-14.3099 2396.78-9.24023 2396.78-6.45736 2396.81-3.37728 2396.86 0 2393.6-0.0540364 2391.49-0.0810547 2390.54-0.0810547 2389.14-0.0810547 2387.01-0.0540364 2384.13 0 2384.29-3.33422 2384.4-5.87815 2384.46-7.6318L2385.14-31.7456C2385.22-35.1414 2385.26-38.4832 2385.26-41.771L2385.27-44.2559 2371.98-5.81567 2370 0C2366.95-0.0540364 2364.94-0.0810547 2363.98-0.0810547 2362.77-0.0810547 2360.65-0.0540364 2357.62 0L2350.48-25.5538C2350.29-26.2626 2349.76-27.9997 2348.89-30.7653L2346.27-39.3951C2346.01-40.2103 2345.84-40.8066 2345.75-41.184 2345.66-41.5614 2345.76-42.5313 2346.05-44.0937L2346.02-39.5768C2345.88-37.9089 2345.68-35.1786 2345.42-31.3859L2343.83-6.18612C2343.78-4.99943 2343.73-2.93739 2343.7 0L2337.65-0.0810547C2336.76-0.0810547 2334.73-0.0540364 2331.53 0ZM2428.12-43.8101C2431.3-43.8101 2434.37-43.3237 2437.34-42.3511 2440.32-41.3784 2442.84-39.9428 2444.91-38.0441 2446.98-36.1454 2448.53-33.8188 2449.58-31.0642 2450.62-28.3096 2451.14-25.4389 2451.14-22.4521 2451.14-19.2741 2450.6-16.2064 2449.51-13.249 2448.42-10.2915 2446.84-7.72035 2444.75-5.53546 2442.66-3.35058 2440.08-1.71967 2436.98-0.642738 2433.89 0.434191 2430.6 0.972656 2427.11 0.972656 2423.88 0.972656 2420.8 0.491605 2417.89-0.470497 2414.98-1.4326 2412.47-2.88842 2410.38-4.83795 2408.29-6.78749 2406.71-9.1481 2405.63-11.9198 2404.55-14.6915 2404.01-17.5944 2404.01-20.6284 2404.01-23.7055 2404.5-26.6408 2405.48-29.4342 2406.46-32.2277 2407.99-34.7221 2410.09-36.9176 2412.19-39.113 2414.85-40.8106 2418.09-42.0104 2421.33-43.2102 2424.67-43.8101 2428.12-43.8101ZM2428.12-33.8403C2425.95-33.8403 2424.02-33.3114 2422.32-32.2534 2420.62-31.1955 2419.34-29.5989 2418.5-27.4636 2417.65-25.3283 2417.22-22.9689 2417.22-20.3853 2417.22-18.1187 2417.57-16.132 2418.25-14.4252 2418.94-12.7184 2420.05-11.3465 2421.59-10.3095 2423.13-9.27242 2424.97-8.75391 2427.11-8.75391 2429.32-8.75391 2431.25-9.29564 2432.9-10.3791 2434.55-11.4626 2435.8-13.0839 2436.65-15.243 2437.51-17.4022 2437.93-19.8052 2437.93-22.4521 2437.93-24.5891 2437.61-26.5117 2436.96-28.22 2436.31-29.9283 2435.22-31.2921 2433.7-32.3114 2432.17-33.3307 2430.31-33.8403 2428.12-33.8403ZM2499.71 0C2496.88-0.0540364 2494.85-0.0810547 2493.63-0.0810547 2492.28-0.0810547 2490.15-0.0540364 2487.22 0L2487.58-7.05176C2487.38-5.72069 2486.83-4.61104 2485.92-3.72282 2485.02-2.83459 2483.91-2.01254 2482.58-1.25666 2481.25-0.500787 2479.83 0.0597356 2478.32 0.424904 2476.8 0.790072 2475.22 0.972656 2473.56 0.972656 2470.84 0.972656 2468.29 0.481262 2465.94-0.501526 2463.58-1.48431 2461.56-2.87902 2459.88-4.68566 2458.2-6.49229 2456.97-8.6262 2456.18-11.0874 2455.39-13.5486 2455-16.1075 2455-18.7642 2455-22.4137 2455.7-25.9707 2457.09-29.4352 2458.48-32.8997 2460.39-35.7145 2462.84-37.8798 2465.28-40.045 2468.04-41.5747 2471.11-42.4689 2474.18-43.363 2477.45-43.8101 2480.92-43.8101 2483.4-43.8101 2485.92-43.5804 2488.5-43.1211 2488.67-46.115 2488.75-49.5329 2488.75-53.3745L2488.75-56.9409C2491.43-56.8869 2493.65-56.8599 2495.4-56.8599 2497.48-56.8599 2499.74-56.8869 2502.17-56.9409 2501.57-49.4623 2501.01-39.8745 2500.49-28.1773 2499.97-16.4801 2499.71-7.08764 2499.71 0ZM2488.03-33.9885C2486.47-34.4031 2484.79-34.6103 2483.01-34.6103 2480.98-34.6103 2479.04-34.3283 2477.19-33.7643 2475.35-33.2003 2473.72-32.247 2472.31-30.9043 2470.91-29.5616 2469.82-27.8223 2469.05-25.6864 2468.27-23.5505 2467.89-21.4862 2467.89-19.4937 2467.89-17.5006 2468.23-15.7052 2468.92-14.1073 2469.6-12.5094 2470.66-11.2583 2472.07-10.3538 2473.49-9.44931 2475.11-8.99707 2476.92-8.99707 2478.31-8.99707 2479.55-9.23517 2480.65-9.71136 2481.75-10.1876 2482.76-10.9372 2483.7-11.9603 2484.63-12.9834 2485.43-14.3178 2486.08-15.9633 2486.74-17.6089 2487.21-19.8519 2487.51-22.6921 2487.7-24.7489 2487.87-28.5144 2488.03-33.9885ZM2546.16-10.8208C2545.8-8.62177 2545.27-5.26285 2544.56-0.744057 2541.24-0.0365168 2538.57 0.426487 2536.55 0.644955 2534.52 0.863422 2532.47 0.972656 2530.39 0.972656 2526.75 0.972656 2523.5 0.612026 2520.62-0.109234 2517.75-0.830494 2515.2-2.17782 2512.99-4.1512 2510.77-6.12459 2509.15-8.51971 2508.11-11.3366 2507.08-14.1534 2506.56-17.1228 2506.56-20.2447 2506.56-23.6595 2507.16-26.9804 2508.37-30.2074 2509.57-33.4344 2511.26-36.0805 2513.44-38.1457 2515.62-40.2109 2518.1-41.6713 2520.88-42.5268 2523.66-43.3823 2526.55-43.8101 2529.54-43.8101 2532.36-43.8101 2535.06-43.4506 2537.66-42.7316 2540.26-42.0127 2542.45-40.8244 2544.24-39.1668 2546.03-37.5092 2547.4-35.5327 2548.35-33.2372 2549.29-30.9417 2549.77-28.3978 2549.77-25.6057 2549.77-24.3172 2549.58-22.7394 2549.2-20.8722L2519.6-20.8323C2519.58-20.5051 2519.57-19.9779 2519.57-19.2505 2519.57-17.5348 2519.86-15.9714 2520.44-14.5601 2521.02-13.1488 2521.85-11.9614 2522.94-10.9978 2524.03-10.0342 2525.35-9.31802 2526.89-8.84921 2528.44-8.3804 2529.97-8.146 2531.49-8.146 2533.34-8.146 2535.32-8.34272 2537.43-8.73617 2539.55-9.12963 2542.45-9.8245 2546.16-10.8208ZM2519.98-27.1919 2537.28-27.1533C2537.28-27.8288 2537.24-28.4606 2537.17-29.0489 2537.09-29.6372 2536.92-30.2958 2536.66-31.0246 2536.4-31.7535 2536.06-32.3837 2535.63-32.9152 2535.2-33.4467 2534.7-33.8895 2534.14-34.2437 2533.57-34.5979 2532.88-34.8759 2532.09-35.0777 2531.29-35.2795 2530.45-35.3804 2529.58-35.3804 2528.54-35.3804 2527.53-35.2216 2526.56-34.9042 2525.6-34.5867 2524.7-34.1173 2523.88-33.4958 2523.05-32.8744 2522.39-32.1803 2521.88-31.4134 2521.37-30.6466 2520.98-29.8995 2520.73-29.1721 2520.47-28.4447 2520.22-27.7847 2519.98-27.1919ZM2554.14 0C2554.55-5.17441 2555.04-13.6779 2555.62-25.5104 2556.2-37.3429 2556.56-47.8197 2556.7-56.9409 2559.6-56.8869 2561.87-56.8599 2563.5-56.8599 2565.44-56.8599 2567.67-56.8869 2570.19-56.9409L2569.21-41.2163 2567.8-8.29354 2567.62 0C2564.84-0.0540364 2562.69-0.0810547 2561.16-0.0810547 2560.65-0.0810547 2558.31-0.0540364 2554.14 0Z" fill="#2A5082" transform="matrix(1 0 0 1 57.6655 111)"/></g></g><text fill="#2A5082" font-family="Eras Demi ITC,Eras Demi ITC_MSFontService,sans-serif" font-weight="700" font-size="83" transform="matrix(1 0 0 1 782.943 -216)">Generative Structural Design Integrating BIM and Diffusion Model</text></g></svg>